G04 #@! TF.GenerationSoftware,KiCad,Pcbnew,8.0.9-8.0.9-0~ubuntu24.04.1*
G04 #@! TF.CreationDate,2025-06-07T16:00:15+02:00*
G04 #@! TF.ProjectId,panel,70616e65-6c2e-46b6-9963-61645f706362,rev?*
G04 #@! TF.SameCoordinates,Original*
G04 #@! TF.FileFunction,Paste,Top*
G04 #@! TF.FilePolarity,Positive*
%FSLAX46Y46*%
G04 Gerber Fmt 4.6, Leading zero omitted, Abs format (unit mm)*
G04 Created by KiCad (PCBNEW 8.0.9-8.0.9-0~ubuntu24.04.1) date 2025-06-07 16:00:15*
%MOMM*%
%LPD*%
G01*
G04 APERTURE LIST*
G04 Aperture macros list*
%AMRoundRect*
0 Rectangle with rounded corners*
0 $1 Rounding radius*
0 $2 $3 $4 $5 $6 $7 $8 $9 X,Y pos of 4 corners*
0 Add a 4 corners polygon primitive as box body*
4,1,4,$2,$3,$4,$5,$6,$7,$8,$9,$2,$3,0*
0 Add four circle primitives for the rounded corners*
1,1,$1+$1,$2,$3*
1,1,$1+$1,$4,$5*
1,1,$1+$1,$6,$7*
1,1,$1+$1,$8,$9*
0 Add four rect primitives between the rounded corners*
20,1,$1+$1,$2,$3,$4,$5,0*
20,1,$1+$1,$4,$5,$6,$7,0*
20,1,$1+$1,$6,$7,$8,$9,0*
20,1,$1+$1,$8,$9,$2,$3,0*%
G04 Aperture macros list end*
%ADD10RoundRect,0.237500X-0.250000X-0.237500X0.250000X-0.237500X0.250000X0.237500X-0.250000X0.237500X0*%
%ADD11RoundRect,0.100000X0.650000X0.100000X-0.650000X0.100000X-0.650000X-0.100000X0.650000X-0.100000X0*%
%ADD12RoundRect,0.237500X-0.237500X0.300000X-0.237500X-0.300000X0.237500X-0.300000X0.237500X0.300000X0*%
%ADD13R,2.600000X0.300000*%
%ADD14RoundRect,0.237500X0.237500X-0.250000X0.237500X0.250000X-0.237500X0.250000X-0.237500X-0.250000X0*%
%ADD15RoundRect,0.150000X-0.675000X-0.150000X0.675000X-0.150000X0.675000X0.150000X-0.675000X0.150000X0*%
%ADD16RoundRect,0.237500X-0.237500X0.250000X-0.237500X-0.250000X0.237500X-0.250000X0.237500X0.250000X0*%
%ADD17R,0.600000X1.240000*%
%ADD18R,0.300000X1.240000*%
%ADD19RoundRect,0.237500X0.250000X0.237500X-0.250000X0.237500X-0.250000X-0.237500X0.250000X-0.237500X0*%
%ADD20RoundRect,0.237500X0.237500X-0.300000X0.237500X0.300000X-0.237500X0.300000X-0.237500X-0.300000X0*%
%ADD21RoundRect,0.150000X-0.150000X0.587500X-0.150000X-0.587500X0.150000X-0.587500X0.150000X0.587500X0*%
%ADD22RoundRect,0.237500X-0.237500X0.287500X-0.237500X-0.287500X0.237500X-0.287500X0.237500X0.287500X0*%
%ADD23RoundRect,0.225000X0.225000X0.375000X-0.225000X0.375000X-0.225000X-0.375000X0.225000X-0.375000X0*%
%ADD24R,1.600000X1.600000*%
%ADD25RoundRect,0.237500X0.300000X0.237500X-0.300000X0.237500X-0.300000X-0.237500X0.300000X-0.237500X0*%
%ADD26RoundRect,0.237500X-0.300000X-0.237500X0.300000X-0.237500X0.300000X0.237500X-0.300000X0.237500X0*%
%ADD27RoundRect,0.150000X-0.850000X-0.150000X0.850000X-0.150000X0.850000X0.150000X-0.850000X0.150000X0*%
G04 APERTURE END LIST*
D10*
X130014607Y-22692892D03*
X131839607Y-22692892D03*
D11*
X182842893Y-83578678D03*
X182842893Y-82928678D03*
X182842893Y-82278678D03*
X180182893Y-82278678D03*
X180182893Y-82928678D03*
X180182893Y-83578678D03*
X182842893Y-110904464D03*
X182842893Y-110254464D03*
X182842893Y-109604464D03*
X180182893Y-109604464D03*
X180182893Y-110254464D03*
X180182893Y-110904464D03*
D12*
X178322893Y-78698678D03*
X178322893Y-80423678D03*
D13*
X136947107Y-106694464D03*
X136947107Y-107194464D03*
X136947107Y-107694464D03*
X136947107Y-108194464D03*
X136947107Y-108694464D03*
X136947107Y-109194464D03*
X136947107Y-109694464D03*
X136947107Y-110194464D03*
X136947107Y-110694464D03*
X136947107Y-111194464D03*
X136947107Y-111694464D03*
X136947107Y-112194464D03*
X136947107Y-112694464D03*
X136947107Y-113194464D03*
X136947107Y-113694464D03*
X136947107Y-114194464D03*
X136947107Y-114694464D03*
X136947107Y-115194464D03*
X136947107Y-115694464D03*
X187952893Y-106694464D03*
X187952893Y-107194464D03*
X187952893Y-107694464D03*
X187952893Y-108194464D03*
X187952893Y-108694464D03*
X187952893Y-109194464D03*
X187952893Y-109694464D03*
X187952893Y-110194464D03*
X187952893Y-110694464D03*
X187952893Y-111194464D03*
X187952893Y-111694464D03*
X187952893Y-112194464D03*
X187952893Y-112694464D03*
X187952893Y-113194464D03*
X187952893Y-113694464D03*
X187952893Y-114194464D03*
X187952893Y-114694464D03*
X187952893Y-115194464D03*
X187952893Y-115694464D03*
D14*
X133717107Y-114546964D03*
X133717107Y-112721964D03*
D15*
X182880393Y-24302892D03*
X182880393Y-25572892D03*
X182880393Y-26842892D03*
X182880393Y-28112892D03*
X188130393Y-28112892D03*
X188130393Y-26842892D03*
X188130393Y-25572892D03*
X188130393Y-24302892D03*
D11*
X131837107Y-83578678D03*
X131837107Y-82928678D03*
X131837107Y-82278678D03*
X129177107Y-82278678D03*
X129177107Y-82928678D03*
X129177107Y-83578678D03*
D13*
X160132893Y-81688678D03*
X160132893Y-81188678D03*
X160132893Y-80688678D03*
X160132893Y-80188678D03*
X160132893Y-79688678D03*
X160132893Y-79188678D03*
X160132893Y-78688678D03*
X160132893Y-78188678D03*
X160132893Y-77688678D03*
X160132893Y-77188678D03*
X160132893Y-76688678D03*
X160132893Y-76188678D03*
X160132893Y-75688678D03*
X160132893Y-75188678D03*
X160132893Y-74688678D03*
X160132893Y-74188678D03*
X160132893Y-73688678D03*
X160132893Y-73188678D03*
X160132893Y-72688678D03*
D16*
X141307107Y-57496178D03*
X141307107Y-59321178D03*
D14*
X184722893Y-46535392D03*
X184722893Y-44710392D03*
D15*
X131874607Y-92314464D03*
X131874607Y-93584464D03*
X131874607Y-94854464D03*
X131874607Y-96124464D03*
X137124607Y-96124464D03*
X137124607Y-94854464D03*
X137124607Y-93584464D03*
X137124607Y-92314464D03*
D17*
X177472893Y-26792892D03*
X176672893Y-26792892D03*
D18*
X175522893Y-26792892D03*
X174522893Y-26792892D03*
X174022893Y-26792892D03*
X173022893Y-26792892D03*
D17*
X171872893Y-26792892D03*
X171072893Y-26792892D03*
X171072893Y-26792892D03*
X171872893Y-26792892D03*
D18*
X172522893Y-26792892D03*
X173522893Y-26792892D03*
X175022893Y-26792892D03*
X176022893Y-26792892D03*
D17*
X176672893Y-26792892D03*
X177472893Y-26792892D03*
D16*
X176762893Y-78666178D03*
X176762893Y-80491178D03*
D19*
X176330393Y-49582892D03*
X174505393Y-49582892D03*
D20*
X178312893Y-111006964D03*
X178312893Y-109281964D03*
D21*
X120727107Y-63301178D03*
X118827107Y-63301178D03*
X119777107Y-65176178D03*
D16*
X180692893Y-61066178D03*
X180692893Y-62891178D03*
D20*
X127307107Y-42995392D03*
X127307107Y-41270392D03*
D12*
X165782893Y-22752892D03*
X165782893Y-24477892D03*
D19*
X176325393Y-82048678D03*
X174500393Y-82048678D03*
X125324607Y-83588678D03*
X123499607Y-83588678D03*
D14*
X125827107Y-111056964D03*
X125827107Y-109231964D03*
D10*
X130014607Y-90704464D03*
X131839607Y-90704464D03*
D22*
X192322893Y-26965392D03*
X192322893Y-28715392D03*
D14*
X176832893Y-43045392D03*
X176832893Y-41220392D03*
D15*
X182880393Y-92314464D03*
X182880393Y-93584464D03*
X182880393Y-94854464D03*
X182880393Y-96124464D03*
X188130393Y-96124464D03*
X188130393Y-94854464D03*
X188130393Y-93584464D03*
X188130393Y-92314464D03*
D11*
X131837107Y-80228678D03*
X131837107Y-79578678D03*
X131837107Y-78928678D03*
X129177107Y-78928678D03*
X129177107Y-79578678D03*
X129177107Y-80228678D03*
D23*
X176605393Y-99164464D03*
X173305393Y-99164464D03*
D11*
X182842893Y-117584464D03*
X182842893Y-116934464D03*
X182842893Y-116284464D03*
X180182893Y-116284464D03*
X180182893Y-116934464D03*
X180182893Y-117584464D03*
D23*
X125599607Y-99164464D03*
X122299607Y-99164464D03*
D14*
X190772893Y-28755392D03*
X190772893Y-26930392D03*
D11*
X131837107Y-117584464D03*
X131837107Y-116934464D03*
X131837107Y-116284464D03*
X129177107Y-116284464D03*
X129177107Y-116934464D03*
X129177107Y-117584464D03*
D14*
X139767107Y-62761178D03*
X139767107Y-60936178D03*
D24*
X195392893Y-63418678D03*
X195392893Y-55618678D03*
D25*
X188412893Y-56718678D03*
X186687893Y-56718678D03*
D13*
X160132893Y-47682892D03*
X160132893Y-47182892D03*
X160132893Y-46682892D03*
X160132893Y-46182892D03*
X160132893Y-45682892D03*
X160132893Y-45182892D03*
X160132893Y-44682892D03*
X160132893Y-44182892D03*
X160132893Y-43682892D03*
X160132893Y-43182892D03*
X160132893Y-42682892D03*
X160132893Y-42182892D03*
X160132893Y-41682892D03*
X160132893Y-41182892D03*
X160132893Y-40682892D03*
X160132893Y-40182892D03*
X160132893Y-39682892D03*
X160132893Y-39182892D03*
X160132893Y-38682892D03*
D16*
X125757107Y-78666178D03*
X125757107Y-80491178D03*
D12*
X178322893Y-112704464D03*
X178322893Y-114429464D03*
D26*
X174150393Y-63148678D03*
X175875393Y-63148678D03*
D25*
X137407107Y-63708678D03*
X135682107Y-63708678D03*
D16*
X176762893Y-112671964D03*
X176762893Y-114496964D03*
D11*
X131837107Y-110904464D03*
X131837107Y-110254464D03*
X131837107Y-109604464D03*
X129177107Y-109604464D03*
X129177107Y-110254464D03*
X129177107Y-110904464D03*
D10*
X181020393Y-56698678D03*
X182845393Y-56698678D03*
D14*
X125827107Y-43045392D03*
X125827107Y-41220392D03*
X175202893Y-114489464D03*
X175202893Y-112664464D03*
D24*
X144387107Y-97424464D03*
X144387107Y-89624464D03*
D27*
X107467107Y-56588678D03*
X107467107Y-57858678D03*
X107467107Y-59128678D03*
X107467107Y-60398678D03*
X107467107Y-61668678D03*
X107467107Y-62938678D03*
X107467107Y-64208678D03*
X107467107Y-65478678D03*
X112467107Y-65478678D03*
X112467107Y-64208678D03*
X112467107Y-62938678D03*
X112467107Y-61668678D03*
X112467107Y-60398678D03*
X112467107Y-59128678D03*
X112467107Y-57858678D03*
X112467107Y-56588678D03*
D10*
X181020393Y-22692892D03*
X182845393Y-22692892D03*
D26*
X123144607Y-63148678D03*
X124869607Y-63148678D03*
D16*
X192312893Y-57496178D03*
X192312893Y-59321178D03*
D14*
X124197107Y-114489464D03*
X124197107Y-112664464D03*
X124197107Y-80483678D03*
X124197107Y-78658678D03*
D11*
X182842893Y-76898678D03*
X182842893Y-76248678D03*
X182842893Y-75598678D03*
X180182893Y-75598678D03*
X180182893Y-76248678D03*
X180182893Y-76898678D03*
X182842893Y-46222892D03*
X182842893Y-45572892D03*
X182842893Y-44922892D03*
X180182893Y-44922892D03*
X180182893Y-45572892D03*
X180182893Y-46222892D03*
D13*
X160132893Y-115694464D03*
X160132893Y-115194464D03*
X160132893Y-114694464D03*
X160132893Y-114194464D03*
X160132893Y-113694464D03*
X160132893Y-113194464D03*
X160132893Y-112694464D03*
X160132893Y-112194464D03*
X160132893Y-111694464D03*
X160132893Y-111194464D03*
X160132893Y-110694464D03*
X160132893Y-110194464D03*
X160132893Y-109694464D03*
X160132893Y-109194464D03*
X160132893Y-108694464D03*
X160132893Y-108194464D03*
X160132893Y-107694464D03*
X160132893Y-107194464D03*
X160132893Y-106694464D03*
D23*
X176605393Y-65158678D03*
X173305393Y-65158678D03*
D20*
X127297107Y-49825392D03*
X127297107Y-48100392D03*
D16*
X125757107Y-112671964D03*
X125757107Y-114496964D03*
X141307107Y-91501964D03*
X141307107Y-93326964D03*
D22*
X192322893Y-60971178D03*
X192322893Y-62721178D03*
D24*
X144387107Y-29412892D03*
X144387107Y-21612892D03*
D26*
X174150393Y-29142892D03*
X175875393Y-29142892D03*
D14*
X175202893Y-80483678D03*
X175202893Y-78658678D03*
D12*
X127317107Y-78698678D03*
X127317107Y-80423678D03*
D22*
X141317107Y-94976964D03*
X141317107Y-96726964D03*
D20*
X178302893Y-49825392D03*
X178302893Y-48100392D03*
D15*
X182880393Y-58308678D03*
X182880393Y-59578678D03*
X182880393Y-60848678D03*
X182880393Y-62118678D03*
X188130393Y-62118678D03*
X188130393Y-60848678D03*
X188130393Y-59578678D03*
X188130393Y-58308678D03*
D19*
X125324607Y-49582892D03*
X123499607Y-49582892D03*
D10*
X181020393Y-90704464D03*
X182845393Y-90704464D03*
D11*
X131837107Y-49572892D03*
X131837107Y-48922892D03*
X131837107Y-48272892D03*
X129177107Y-48272892D03*
X129177107Y-48922892D03*
X129177107Y-49572892D03*
D17*
X126467107Y-26792892D03*
X125667107Y-26792892D03*
D18*
X124517107Y-26792892D03*
X123517107Y-26792892D03*
X123017107Y-26792892D03*
X122017107Y-26792892D03*
D17*
X120867107Y-26792892D03*
X120067107Y-26792892D03*
X120067107Y-26792892D03*
X120867107Y-26792892D03*
D18*
X121517107Y-26792892D03*
X122517107Y-26792892D03*
X124017107Y-26792892D03*
X125017107Y-26792892D03*
D17*
X125667107Y-26792892D03*
X126467107Y-26792892D03*
D14*
X184702893Y-111016964D03*
X184702893Y-109191964D03*
D13*
X109127107Y-115694464D03*
X109127107Y-115194464D03*
X109127107Y-114694464D03*
X109127107Y-114194464D03*
X109127107Y-113694464D03*
X109127107Y-113194464D03*
X109127107Y-112694464D03*
X109127107Y-112194464D03*
X109127107Y-111694464D03*
X109127107Y-111194464D03*
X109127107Y-110694464D03*
X109127107Y-110194464D03*
X109127107Y-109694464D03*
X109127107Y-109194464D03*
X109127107Y-108694464D03*
X109127107Y-108194464D03*
X109127107Y-107694464D03*
X109127107Y-107194464D03*
X109127107Y-106694464D03*
D19*
X176330393Y-117594464D03*
X174505393Y-117594464D03*
D14*
X133717107Y-83953678D03*
X133717107Y-82128678D03*
D24*
X195392893Y-29412892D03*
X195392893Y-21612892D03*
D26*
X123144607Y-29142892D03*
X124869607Y-29142892D03*
D11*
X131837107Y-42892892D03*
X131837107Y-42242892D03*
X131837107Y-41592892D03*
X129177107Y-41592892D03*
X129177107Y-42242892D03*
X129177107Y-42892892D03*
X131837107Y-114234464D03*
X131837107Y-113584464D03*
X131837107Y-112934464D03*
X129177107Y-112934464D03*
X129177107Y-113584464D03*
X129177107Y-114234464D03*
D14*
X133697107Y-111016964D03*
X133697107Y-109191964D03*
D16*
X141307107Y-23490392D03*
X141307107Y-25315392D03*
D13*
X187952893Y-72688678D03*
X187952893Y-73188678D03*
X187952893Y-73688678D03*
X187952893Y-74188678D03*
X187952893Y-74688678D03*
X187952893Y-75188678D03*
X187952893Y-75688678D03*
X187952893Y-76188678D03*
X187952893Y-76688678D03*
X187952893Y-77188678D03*
X187952893Y-77688678D03*
X187952893Y-78188678D03*
X187952893Y-78688678D03*
X187952893Y-79188678D03*
X187952893Y-79688678D03*
X187952893Y-80188678D03*
X187952893Y-80688678D03*
X187952893Y-81188678D03*
X187952893Y-81688678D03*
D23*
X125599607Y-31152892D03*
X122299607Y-31152892D03*
D20*
X178312893Y-42995392D03*
X178312893Y-41270392D03*
D14*
X176832893Y-111056964D03*
X176832893Y-109231964D03*
D20*
X127297107Y-83831178D03*
X127297107Y-82106178D03*
D14*
X190772893Y-96766964D03*
X190772893Y-94941964D03*
X184722893Y-117959464D03*
X184722893Y-116134464D03*
D17*
X177472893Y-94804464D03*
X176672893Y-94804464D03*
D18*
X175522893Y-94804464D03*
X174522893Y-94804464D03*
X174022893Y-94804464D03*
X173022893Y-94804464D03*
D17*
X171872893Y-94804464D03*
X171072893Y-94804464D03*
X171072893Y-94804464D03*
X171872893Y-94804464D03*
D18*
X172522893Y-94804464D03*
X173522893Y-94804464D03*
X175022893Y-94804464D03*
X176022893Y-94804464D03*
D17*
X176672893Y-94804464D03*
X177472893Y-94804464D03*
D13*
X187952893Y-38682892D03*
X187952893Y-39182892D03*
X187952893Y-39682892D03*
X187952893Y-40182892D03*
X187952893Y-40682892D03*
X187952893Y-41182892D03*
X187952893Y-41682892D03*
X187952893Y-42182892D03*
X187952893Y-42682892D03*
X187952893Y-43182892D03*
X187952893Y-43682892D03*
X187952893Y-44182892D03*
X187952893Y-44682892D03*
X187952893Y-45182892D03*
X187952893Y-45682892D03*
X187952893Y-46182892D03*
X187952893Y-46682892D03*
X187952893Y-47182892D03*
X187952893Y-47682892D03*
D17*
X126467107Y-94804464D03*
X125667107Y-94804464D03*
D18*
X124517107Y-94804464D03*
X123517107Y-94804464D03*
X123017107Y-94804464D03*
X122017107Y-94804464D03*
D17*
X120867107Y-94804464D03*
X120067107Y-94804464D03*
X120067107Y-94804464D03*
X120867107Y-94804464D03*
D18*
X121517107Y-94804464D03*
X122517107Y-94804464D03*
X124017107Y-94804464D03*
X125017107Y-94804464D03*
D17*
X125667107Y-94804464D03*
X126467107Y-94804464D03*
D16*
X180692893Y-27060392D03*
X180692893Y-28885392D03*
D14*
X184722893Y-114546964D03*
X184722893Y-112721964D03*
D17*
X177472893Y-60798678D03*
X176672893Y-60798678D03*
D18*
X175522893Y-60798678D03*
X174522893Y-60798678D03*
X174022893Y-60798678D03*
X173022893Y-60798678D03*
D17*
X171872893Y-60798678D03*
X171072893Y-60798678D03*
X171072893Y-60798678D03*
X171872893Y-60798678D03*
D18*
X172522893Y-60798678D03*
X173522893Y-60798678D03*
X175022893Y-60798678D03*
X176022893Y-60798678D03*
D17*
X176672893Y-60798678D03*
X177472893Y-60798678D03*
D25*
X137407107Y-29702892D03*
X135682107Y-29702892D03*
D20*
X178312893Y-77001178D03*
X178312893Y-75276178D03*
D25*
X137407107Y-90724464D03*
X135682107Y-90724464D03*
D26*
X123144607Y-97154464D03*
X124869607Y-97154464D03*
D24*
X195392893Y-97424464D03*
X195392893Y-89624464D03*
D11*
X182842893Y-114234464D03*
X182842893Y-113584464D03*
X182842893Y-112934464D03*
X180182893Y-112934464D03*
X180182893Y-113584464D03*
X180182893Y-114234464D03*
D25*
X137407107Y-22712892D03*
X135682107Y-22712892D03*
D11*
X131837107Y-46222892D03*
X131837107Y-45572892D03*
X131837107Y-44922892D03*
X129177107Y-44922892D03*
X129177107Y-45572892D03*
X129177107Y-46222892D03*
X182842893Y-49572892D03*
X182842893Y-48922892D03*
X182842893Y-48272892D03*
X180182893Y-48272892D03*
X180182893Y-48922892D03*
X180182893Y-49572892D03*
D16*
X176762893Y-44660392D03*
X176762893Y-46485392D03*
D23*
X176605393Y-31152892D03*
X173305393Y-31152892D03*
D19*
X125319607Y-116054464D03*
X123494607Y-116054464D03*
D12*
X114777107Y-22752892D03*
X114777107Y-24477892D03*
X114777107Y-56758678D03*
X114777107Y-58483678D03*
X114777107Y-90764464D03*
X114777107Y-92489464D03*
X165782893Y-56758678D03*
X165782893Y-58483678D03*
D20*
X178302893Y-83831178D03*
X178302893Y-82106178D03*
D14*
X133697107Y-43005392D03*
X133697107Y-41180392D03*
D21*
X171732893Y-29295392D03*
X169832893Y-29295392D03*
X170782893Y-31170392D03*
D25*
X188412893Y-63708678D03*
X186687893Y-63708678D03*
D14*
X184722893Y-80541178D03*
X184722893Y-78716178D03*
X133697107Y-77011178D03*
X133697107Y-75186178D03*
D16*
X129687107Y-61066178D03*
X129687107Y-62891178D03*
D10*
X130014607Y-56698678D03*
X131839607Y-56698678D03*
D22*
X141317107Y-60971178D03*
X141317107Y-62721178D03*
D21*
X120727107Y-29295392D03*
X118827107Y-29295392D03*
X119777107Y-31170392D03*
D16*
X192312893Y-23490392D03*
X192312893Y-25315392D03*
D20*
X127297107Y-117836964D03*
X127297107Y-116111964D03*
D22*
X141317107Y-26965392D03*
X141317107Y-28715392D03*
D14*
X133717107Y-46535392D03*
X133717107Y-44710392D03*
D13*
X109127107Y-81688678D03*
X109127107Y-81188678D03*
X109127107Y-80688678D03*
X109127107Y-80188678D03*
X109127107Y-79688678D03*
X109127107Y-79188678D03*
X109127107Y-78688678D03*
X109127107Y-78188678D03*
X109127107Y-77688678D03*
X109127107Y-77188678D03*
X109127107Y-76688678D03*
X109127107Y-76188678D03*
X109127107Y-75688678D03*
X109127107Y-75188678D03*
X109127107Y-74688678D03*
X109127107Y-74188678D03*
X109127107Y-73688678D03*
X109127107Y-73188678D03*
X109127107Y-72688678D03*
D14*
X124197107Y-46477892D03*
X124197107Y-44652892D03*
D27*
X107467107Y-22582892D03*
X107467107Y-23852892D03*
X107467107Y-25122892D03*
X107467107Y-26392892D03*
X107467107Y-27662892D03*
X107467107Y-28932892D03*
X107467107Y-30202892D03*
X107467107Y-31472892D03*
X112467107Y-31472892D03*
X112467107Y-30202892D03*
X112467107Y-28932892D03*
X112467107Y-27662892D03*
X112467107Y-26392892D03*
X112467107Y-25122892D03*
X112467107Y-23852892D03*
X112467107Y-22582892D03*
D19*
X125319607Y-48042892D03*
X123494607Y-48042892D03*
D14*
X184702893Y-43005392D03*
X184702893Y-41180392D03*
D16*
X192312893Y-91501964D03*
X192312893Y-93326964D03*
D14*
X133717107Y-80541178D03*
X133717107Y-78716178D03*
D23*
X125599607Y-65158678D03*
X122299607Y-65158678D03*
D12*
X165782893Y-90764464D03*
X165782893Y-92489464D03*
D14*
X184702893Y-77011178D03*
X184702893Y-75186178D03*
X133717107Y-117959464D03*
X133717107Y-116134464D03*
D19*
X176330393Y-83588678D03*
X174505393Y-83588678D03*
D27*
X107467107Y-90594464D03*
X107467107Y-91864464D03*
X107467107Y-93134464D03*
X107467107Y-94404464D03*
X107467107Y-95674464D03*
X107467107Y-96944464D03*
X107467107Y-98214464D03*
X107467107Y-99484464D03*
X112467107Y-99484464D03*
X112467107Y-98214464D03*
X112467107Y-96944464D03*
X112467107Y-95674464D03*
X112467107Y-94404464D03*
X112467107Y-93134464D03*
X112467107Y-91864464D03*
X112467107Y-90594464D03*
D26*
X174150393Y-97154464D03*
X175875393Y-97154464D03*
D20*
X127307107Y-77001178D03*
X127307107Y-75276178D03*
D25*
X188412893Y-97714464D03*
X186687893Y-97714464D03*
D22*
X192322893Y-94976964D03*
X192322893Y-96726964D03*
D13*
X109127107Y-47682892D03*
X109127107Y-47182892D03*
X109127107Y-46682892D03*
X109127107Y-46182892D03*
X109127107Y-45682892D03*
X109127107Y-45182892D03*
X109127107Y-44682892D03*
X109127107Y-44182892D03*
X109127107Y-43682892D03*
X109127107Y-43182892D03*
X109127107Y-42682892D03*
X109127107Y-42182892D03*
X109127107Y-41682892D03*
X109127107Y-41182892D03*
X109127107Y-40682892D03*
X109127107Y-40182892D03*
X109127107Y-39682892D03*
X109127107Y-39182892D03*
X109127107Y-38682892D03*
D14*
X190772893Y-62761178D03*
X190772893Y-60936178D03*
D27*
X158472893Y-90594464D03*
X158472893Y-91864464D03*
X158472893Y-93134464D03*
X158472893Y-94404464D03*
X158472893Y-95674464D03*
X158472893Y-96944464D03*
X158472893Y-98214464D03*
X158472893Y-99484464D03*
X163472893Y-99484464D03*
X163472893Y-98214464D03*
X163472893Y-96944464D03*
X163472893Y-95674464D03*
X163472893Y-94404464D03*
X163472893Y-93134464D03*
X163472893Y-91864464D03*
X163472893Y-90594464D03*
D16*
X125757107Y-44660392D03*
X125757107Y-46485392D03*
X129687107Y-27060392D03*
X129687107Y-28885392D03*
D11*
X131837107Y-76898678D03*
X131837107Y-76248678D03*
X131837107Y-75598678D03*
X129177107Y-75598678D03*
X129177107Y-76248678D03*
X129177107Y-76898678D03*
D21*
X171732893Y-63301178D03*
X169832893Y-63301178D03*
X170782893Y-65176178D03*
D14*
X184722893Y-49947892D03*
X184722893Y-48122892D03*
X133717107Y-49947892D03*
X133717107Y-48122892D03*
D25*
X188412893Y-90724464D03*
X186687893Y-90724464D03*
D19*
X176325393Y-116054464D03*
X174500393Y-116054464D03*
D13*
X136947107Y-38682892D03*
X136947107Y-39182892D03*
X136947107Y-39682892D03*
X136947107Y-40182892D03*
X136947107Y-40682892D03*
X136947107Y-41182892D03*
X136947107Y-41682892D03*
X136947107Y-42182892D03*
X136947107Y-42682892D03*
X136947107Y-43182892D03*
X136947107Y-43682892D03*
X136947107Y-44182892D03*
X136947107Y-44682892D03*
X136947107Y-45182892D03*
X136947107Y-45682892D03*
X136947107Y-46182892D03*
X136947107Y-46682892D03*
X136947107Y-47182892D03*
X136947107Y-47682892D03*
D21*
X120727107Y-97306964D03*
X118827107Y-97306964D03*
X119777107Y-99181964D03*
D14*
X125827107Y-77051178D03*
X125827107Y-75226178D03*
D25*
X188412893Y-29702892D03*
X186687893Y-29702892D03*
D11*
X182842893Y-42892892D03*
X182842893Y-42242892D03*
X182842893Y-41592892D03*
X180182893Y-41592892D03*
X180182893Y-42242892D03*
X180182893Y-42892892D03*
D25*
X137407107Y-97714464D03*
X135682107Y-97714464D03*
D20*
X178302893Y-117836964D03*
X178302893Y-116111964D03*
D14*
X184722893Y-83953678D03*
X184722893Y-82128678D03*
D25*
X188412893Y-22712892D03*
X186687893Y-22712892D03*
D11*
X182842893Y-80228678D03*
X182842893Y-79578678D03*
X182842893Y-78928678D03*
X180182893Y-78928678D03*
X180182893Y-79578678D03*
X180182893Y-80228678D03*
D14*
X139767107Y-28755392D03*
X139767107Y-26930392D03*
D27*
X158472893Y-22582892D03*
X158472893Y-23852892D03*
X158472893Y-25122892D03*
X158472893Y-26392892D03*
X158472893Y-27662892D03*
X158472893Y-28932892D03*
X158472893Y-30202892D03*
X158472893Y-31472892D03*
X163472893Y-31472892D03*
X163472893Y-30202892D03*
X163472893Y-28932892D03*
X163472893Y-27662892D03*
X163472893Y-26392892D03*
X163472893Y-25122892D03*
X163472893Y-23852892D03*
X163472893Y-22582892D03*
D16*
X180692893Y-95071964D03*
X180692893Y-96896964D03*
D12*
X127317107Y-44692892D03*
X127317107Y-46417892D03*
D19*
X125319607Y-82048678D03*
X123494607Y-82048678D03*
D17*
X126467107Y-60798678D03*
X125667107Y-60798678D03*
D18*
X124517107Y-60798678D03*
X123517107Y-60798678D03*
X123017107Y-60798678D03*
X122017107Y-60798678D03*
D17*
X120867107Y-60798678D03*
X120067107Y-60798678D03*
X120067107Y-60798678D03*
X120867107Y-60798678D03*
D18*
X121517107Y-60798678D03*
X122517107Y-60798678D03*
X124017107Y-60798678D03*
X125017107Y-60798678D03*
D17*
X125667107Y-60798678D03*
X126467107Y-60798678D03*
D16*
X129687107Y-95071964D03*
X129687107Y-96896964D03*
D20*
X127307107Y-111006964D03*
X127307107Y-109281964D03*
D21*
X171732893Y-97306964D03*
X169832893Y-97306964D03*
X170782893Y-99181964D03*
D15*
X131874607Y-24302892D03*
X131874607Y-25572892D03*
X131874607Y-26842892D03*
X131874607Y-28112892D03*
X137124607Y-28112892D03*
X137124607Y-26842892D03*
X137124607Y-25572892D03*
X137124607Y-24302892D03*
D27*
X158472893Y-56588678D03*
X158472893Y-57858678D03*
X158472893Y-59128678D03*
X158472893Y-60398678D03*
X158472893Y-61668678D03*
X158472893Y-62938678D03*
X158472893Y-64208678D03*
X158472893Y-65478678D03*
X163472893Y-65478678D03*
X163472893Y-64208678D03*
X163472893Y-62938678D03*
X163472893Y-61668678D03*
X163472893Y-60398678D03*
X163472893Y-59128678D03*
X163472893Y-57858678D03*
X163472893Y-56588678D03*
D14*
X175202893Y-46477892D03*
X175202893Y-44652892D03*
D25*
X137407107Y-56718678D03*
X135682107Y-56718678D03*
D14*
X176832893Y-77051178D03*
X176832893Y-75226178D03*
D15*
X131874607Y-58308678D03*
X131874607Y-59578678D03*
X131874607Y-60848678D03*
X131874607Y-62118678D03*
X137124607Y-62118678D03*
X137124607Y-60848678D03*
X137124607Y-59578678D03*
X137124607Y-58308678D03*
D13*
X136947107Y-72688678D03*
X136947107Y-73188678D03*
X136947107Y-73688678D03*
X136947107Y-74188678D03*
X136947107Y-74688678D03*
X136947107Y-75188678D03*
X136947107Y-75688678D03*
X136947107Y-76188678D03*
X136947107Y-76688678D03*
X136947107Y-77188678D03*
X136947107Y-77688678D03*
X136947107Y-78188678D03*
X136947107Y-78688678D03*
X136947107Y-79188678D03*
X136947107Y-79688678D03*
X136947107Y-80188678D03*
X136947107Y-80688678D03*
X136947107Y-81188678D03*
X136947107Y-81688678D03*
D12*
X178322893Y-44692892D03*
X178322893Y-46417892D03*
D24*
X144387107Y-63418678D03*
X144387107Y-55618678D03*
D14*
X139767107Y-96766964D03*
X139767107Y-94941964D03*
D19*
X176325393Y-48042892D03*
X174500393Y-48042892D03*
D12*
X127317107Y-112704464D03*
X127317107Y-114429464D03*
D19*
X125324607Y-117594464D03*
X123499607Y-117594464D03*
M02*
