M48
; DRILL file {KiCad 8.0.9-8.0.9-0~ubuntu24.04.1} date 2025-06-07T16:00:36+0200
; FORMAT={-:-/ absolute / metric / decimal}
; #@! TF.CreationDate,2025-06-07T16:00:36+02:00
; #@! TF.GenerationSoftware,Kicad,Pcbnew,8.0.9-8.0.9-0~ubuntu24.04.1
; #@! TF.FileFunction,NonPlated,1,4,NPTH
FMAT,2
METRIC
; #@! TA.AperFunction,NonPlated,NPTH,ComponentDrill
T1C0.500
; #@! TA.AperFunction,NonPlated,NPTH,ComponentDrill
T2C0.650
%
G90
G05
T1
X108.746Y-51.805
X108.746Y-85.811
X108.746Y-54.206
X108.746Y-88.212
X109.746Y-51.805
X109.746Y-85.811
X109.746Y-54.206
X109.746Y-88.212
X110.746Y-51.805
X110.746Y-85.811
X110.746Y-54.206
X110.746Y-88.212
X111.746Y-51.805
X111.746Y-85.811
X111.746Y-54.206
X111.746Y-88.212
X112.746Y-51.805
X112.746Y-85.811
X112.746Y-54.206
X112.746Y-88.212
X120.997Y-51.804
X120.997Y-85.81
X120.997Y-54.206
X120.997Y-88.212
X121.997Y-51.804
X121.997Y-85.81
X121.997Y-54.206
X121.997Y-88.212
X122.997Y-51.804
X122.997Y-85.81
X122.997Y-54.206
X122.997Y-88.212
X123.997Y-51.804
X123.997Y-85.81
X123.997Y-54.206
X123.997Y-88.212
X124.997Y-51.804
X124.997Y-85.81
X124.997Y-54.206
X124.997Y-88.212
X133.249Y-51.804
X133.249Y-85.809
X133.249Y-54.206
X133.249Y-88.212
X134.249Y-51.804
X134.249Y-85.809
X134.249Y-54.206
X134.249Y-88.212
X135.249Y-51.804
X135.249Y-85.809
X135.249Y-54.206
X135.249Y-88.212
X136.249Y-51.804
X136.249Y-85.809
X136.249Y-54.206
X136.249Y-88.212
X137.249Y-51.803
X137.249Y-85.809
X137.249Y-54.206
X137.249Y-88.212
X147.298Y-46.004
X147.298Y-80.01
X147.298Y-114.016
X147.298Y-45.004
X147.298Y-79.01
X147.298Y-113.016
X147.298Y-44.004
X147.298Y-78.01
X147.298Y-112.016
X147.298Y-43.004
X147.298Y-77.01
X147.298Y-111.016
X147.298Y-42.004
X147.298Y-76.01
X147.298Y-110.016
X147.298Y-38.003
X147.298Y-72.009
X147.298Y-106.014
X147.298Y-37.003
X147.298Y-71.009
X147.298Y-105.014
X147.299Y-36.003
X147.299Y-70.009
X147.299Y-104.014
X147.299Y-35.003
X147.299Y-69.009
X147.299Y-103.014
X147.299Y-34.003
X147.299Y-68.009
X147.299Y-102.014
X147.299Y-30.001
X147.299Y-64.007
X147.299Y-98.013
X147.299Y-29.001
X147.299Y-63.007
X147.299Y-97.013
X147.299Y-28.001
X147.299Y-62.007
X147.299Y-96.013
X147.299Y-27.001
X147.299Y-61.007
X147.299Y-95.013
X147.3Y-26.001
X147.3Y-60.007
X147.3Y-94.013
X149.7Y-26.001
X149.7Y-27.001
X149.7Y-28.001
X149.7Y-29.001
X149.7Y-30.001
X149.7Y-34.003
X149.7Y-35.003
X149.7Y-36.003
X149.7Y-37.003
X149.7Y-38.003
X149.7Y-42.004
X149.7Y-43.338
X149.7Y-44.671
X149.7Y-46.004
X149.7Y-60.007
X149.7Y-61.007
X149.7Y-62.007
X149.7Y-63.007
X149.7Y-64.007
X149.7Y-68.009
X149.7Y-69.009
X149.7Y-70.009
X149.7Y-71.009
X149.7Y-72.009
X149.7Y-76.01
X149.7Y-77.01
X149.7Y-78.01
X149.7Y-79.01
X149.7Y-80.01
X149.7Y-94.013
X149.7Y-95.013
X149.7Y-96.013
X149.7Y-97.013
X149.7Y-98.013
X149.7Y-102.014
X149.7Y-103.014
X149.7Y-104.014
X149.7Y-105.014
X149.7Y-106.014
X149.7Y-110.016
X149.7Y-111.016
X149.7Y-112.016
X149.7Y-113.016
X149.7Y-114.016
X159.751Y-51.805
X159.751Y-85.811
X159.751Y-54.206
X159.751Y-88.212
X160.751Y-51.805
X160.751Y-85.811
X160.751Y-54.206
X160.751Y-88.212
X161.751Y-51.805
X161.751Y-85.811
X161.751Y-54.206
X161.751Y-88.212
X162.751Y-51.805
X162.751Y-85.811
X162.751Y-54.206
X162.751Y-88.212
X163.751Y-51.805
X163.751Y-85.811
X163.751Y-54.206
X163.751Y-88.212
X172.003Y-51.804
X172.003Y-85.81
X172.003Y-54.206
X172.003Y-88.212
X173.003Y-51.804
X173.003Y-85.81
X173.003Y-54.206
X173.003Y-88.212
X174.003Y-51.804
X174.003Y-85.81
X174.003Y-54.206
X174.003Y-88.212
X175.003Y-51.804
X175.003Y-85.81
X175.003Y-54.206
X175.003Y-88.212
X176.003Y-51.804
X176.003Y-85.81
X176.003Y-54.206
X176.003Y-88.212
X184.254Y-51.804
X184.254Y-85.809
X184.254Y-54.206
X184.254Y-88.212
X185.254Y-51.804
X185.254Y-85.809
X185.254Y-54.206
X185.254Y-88.212
X186.254Y-51.804
X186.254Y-85.809
X186.254Y-54.206
X186.254Y-88.212
X187.254Y-51.804
X187.254Y-85.809
X187.254Y-54.206
X187.254Y-88.212
X188.254Y-51.803
X188.254Y-85.809
X188.254Y-54.206
X188.254Y-88.212
T2
X120.377Y-25.673
X120.377Y-59.679
X120.377Y-93.684
X126.157Y-25.673
X126.157Y-59.679
X126.157Y-93.684
X171.383Y-25.673
X171.383Y-59.679
X171.383Y-93.684
X177.163Y-25.673
X177.163Y-59.679
X177.163Y-93.684
M30
