G04 #@! TF.GenerationSoftware,KiCad,Pcbnew,8.0.9-8.0.9-0~ubuntu24.04.1*
G04 #@! TF.CreationDate,2025-06-07T16:00:15+02:00*
G04 #@! TF.ProjectId,panel,70616e65-6c2e-46b6-9963-61645f706362,rev?*
G04 #@! TF.SameCoordinates,Original*
G04 #@! TF.FileFunction,Copper,L3,Inr*
G04 #@! TF.FilePolarity,Positive*
%FSLAX46Y46*%
G04 Gerber Fmt 4.6, Leading zero omitted, Abs format (unit mm)*
G04 Created by KiCad (PCBNEW 8.0.9-8.0.9-0~ubuntu24.04.1) date 2025-06-07 16:00:15*
%MOMM*%
%LPD*%
G01*
G04 APERTURE LIST*
G04 #@! TA.AperFunction,ComponentPad*
%ADD10R,1.700000X1.700000*%
G04 #@! TD*
G04 #@! TA.AperFunction,ComponentPad*
%ADD11O,1.700000X1.700000*%
G04 #@! TD*
G04 #@! TA.AperFunction,ComponentPad*
%ADD12O,3.300000X1.500000*%
G04 #@! TD*
G04 #@! TA.AperFunction,ComponentPad*
%ADD13O,2.300000X1.500000*%
G04 #@! TD*
G04 #@! TA.AperFunction,HeatsinkPad*
%ADD14O,1.000000X2.100000*%
G04 #@! TD*
G04 #@! TA.AperFunction,HeatsinkPad*
%ADD15O,1.000000X1.800000*%
G04 #@! TD*
G04 #@! TA.AperFunction,ViaPad*
%ADD16C,0.600000*%
G04 #@! TD*
G04 #@! TA.AperFunction,ViaPad*
%ADD17C,0.450000*%
G04 #@! TD*
G04 #@! TA.AperFunction,Conductor*
%ADD18C,0.200000*%
G04 #@! TD*
G04 APERTURE END LIST*
D10*
X152172893Y-90774464D03*
D11*
X154712893Y-90774464D03*
X152172893Y-93314464D03*
X154712893Y-93314464D03*
X152172893Y-95854464D03*
X154712893Y-95854464D03*
D12*
X137707107Y-103944464D03*
X137707107Y-118444464D03*
D13*
X143667107Y-103944464D03*
X143667107Y-118444464D03*
D12*
X188712893Y-103944464D03*
X188712893Y-118444464D03*
D13*
X194672893Y-103944464D03*
X194672893Y-118444464D03*
D12*
X159372893Y-84438678D03*
X159372893Y-69938678D03*
D13*
X153412893Y-84438678D03*
X153412893Y-69938678D03*
D14*
X178592893Y-26192892D03*
D15*
X178592893Y-21992892D03*
D14*
X169952893Y-26192892D03*
D15*
X169952893Y-21992892D03*
D12*
X159372893Y-50432892D03*
X159372893Y-35932892D03*
D13*
X153412893Y-50432892D03*
X153412893Y-35932892D03*
D12*
X159372893Y-118444464D03*
X159372893Y-103944464D03*
D13*
X153412893Y-118444464D03*
X153412893Y-103944464D03*
D14*
X127587107Y-26192892D03*
D15*
X127587107Y-21992892D03*
D14*
X118947107Y-26192892D03*
D15*
X118947107Y-21992892D03*
D12*
X108367107Y-118444464D03*
X108367107Y-103944464D03*
D13*
X102407107Y-118444464D03*
X102407107Y-103944464D03*
D12*
X188712893Y-69938678D03*
X188712893Y-84438678D03*
D13*
X194672893Y-69938678D03*
X194672893Y-84438678D03*
D14*
X178592893Y-94204464D03*
D15*
X178592893Y-90004464D03*
D14*
X169952893Y-94204464D03*
D15*
X169952893Y-90004464D03*
D12*
X188712893Y-35932892D03*
X188712893Y-50432892D03*
D13*
X194672893Y-35932892D03*
X194672893Y-50432892D03*
D14*
X127587107Y-94204464D03*
D15*
X127587107Y-90004464D03*
D14*
X118947107Y-94204464D03*
D15*
X118947107Y-90004464D03*
D14*
X178592893Y-60198678D03*
D15*
X178592893Y-55998678D03*
D14*
X169952893Y-60198678D03*
D15*
X169952893Y-55998678D03*
D10*
X101167107Y-56768678D03*
D11*
X103707107Y-56768678D03*
X101167107Y-59308678D03*
X103707107Y-59308678D03*
X101167107Y-61848678D03*
X103707107Y-61848678D03*
D10*
X152172893Y-56768678D03*
D11*
X154712893Y-56768678D03*
X152172893Y-59308678D03*
X154712893Y-59308678D03*
X152172893Y-61848678D03*
X154712893Y-61848678D03*
D12*
X108367107Y-84438678D03*
X108367107Y-69938678D03*
D13*
X102407107Y-84438678D03*
X102407107Y-69938678D03*
D10*
X101167107Y-22762892D03*
D11*
X103707107Y-22762892D03*
X101167107Y-25302892D03*
X103707107Y-25302892D03*
X101167107Y-27842892D03*
X103707107Y-27842892D03*
D12*
X108367107Y-50432892D03*
X108367107Y-35932892D03*
D13*
X102407107Y-50432892D03*
X102407107Y-35932892D03*
D10*
X101167107Y-90774464D03*
D11*
X103707107Y-90774464D03*
X101167107Y-93314464D03*
X103707107Y-93314464D03*
X101167107Y-95854464D03*
X103707107Y-95854464D03*
D10*
X152172893Y-22762892D03*
D11*
X154712893Y-22762892D03*
X152172893Y-25302892D03*
X154712893Y-25302892D03*
X152172893Y-27842892D03*
X154712893Y-27842892D03*
D12*
X137707107Y-35932892D03*
X137707107Y-50432892D03*
D13*
X143667107Y-35932892D03*
X143667107Y-50432892D03*
D14*
X127587107Y-60198678D03*
D15*
X127587107Y-55998678D03*
D14*
X118947107Y-60198678D03*
D15*
X118947107Y-55998678D03*
D12*
X137707107Y-69938678D03*
X137707107Y-84438678D03*
D13*
X143667107Y-69938678D03*
X143667107Y-84438678D03*
D16*
X124197107Y-43872892D03*
X106407107Y-39182892D03*
X125117107Y-42312892D03*
X135097107Y-47432892D03*
X126437107Y-49982892D03*
X134337107Y-45892892D03*
X134337107Y-42362892D03*
X123097107Y-31122892D03*
X126437107Y-45472892D03*
X125747107Y-45482892D03*
X126437107Y-42312892D03*
D17*
X138597107Y-42132892D03*
D16*
X135684607Y-23562892D03*
X133024607Y-26842892D03*
D17*
X110727107Y-42682892D03*
X135297107Y-42132892D03*
X107232107Y-44192892D03*
X135297107Y-40632892D03*
X138597107Y-40632892D03*
D16*
X107107107Y-39812892D03*
D17*
X138597107Y-39132892D03*
D16*
X143887107Y-30572892D03*
X126437107Y-48082892D03*
X115617107Y-24462892D03*
D17*
X135297107Y-43632892D03*
X110727107Y-44182892D03*
D16*
X138867107Y-46622892D03*
D17*
X138597107Y-43632892D03*
D16*
X132887107Y-45572892D03*
D17*
X107167107Y-45682892D03*
X110727107Y-45682892D03*
D16*
X130537107Y-42242892D03*
X128017107Y-46652892D03*
D17*
X107232107Y-42682892D03*
D16*
X125767107Y-29142892D03*
D17*
X107167107Y-47182892D03*
X135297107Y-39132892D03*
D16*
X134627107Y-29702892D03*
X132897107Y-48922892D03*
X128077107Y-40852892D03*
X130487107Y-28882892D03*
D17*
X110727107Y-47182892D03*
D16*
X131827107Y-21822892D03*
X138527107Y-24932892D03*
X110877107Y-22622892D03*
X119557107Y-50342892D03*
X106407107Y-41882892D03*
X132927107Y-50142892D03*
X130537107Y-47882892D03*
X114997107Y-32692892D03*
X131837107Y-43532892D03*
X124977107Y-41302892D03*
X114997107Y-35212892D03*
X109597107Y-29662892D03*
X111587107Y-35372892D03*
X124932717Y-45462892D03*
X120807107Y-50182892D03*
X106407107Y-41082892D03*
X110867107Y-38682892D03*
X131837107Y-50142892D03*
X107177107Y-33942892D03*
X129017107Y-40852892D03*
X112357107Y-38702892D03*
X128507107Y-44392892D03*
X108937107Y-30202892D03*
X131837107Y-40802892D03*
X110397107Y-28372892D03*
X115657107Y-28372892D03*
X135347107Y-25982892D03*
X115277107Y-30832892D03*
X117717107Y-30192892D03*
X135337107Y-26872892D03*
X113157107Y-36892892D03*
X123407107Y-46472892D03*
X129177107Y-50142892D03*
X102437107Y-30422892D03*
X109207107Y-26362892D03*
X134337107Y-48732892D03*
X131837107Y-44402892D03*
X105637107Y-28902892D03*
X123667107Y-42662892D03*
X111097107Y-36292892D03*
X122707107Y-48042892D03*
X114047107Y-37562892D03*
X177442893Y-49982892D03*
X185342893Y-45892892D03*
X185342893Y-42362892D03*
X174102893Y-31122892D03*
X175202893Y-43872892D03*
X177442893Y-42312892D03*
X157412893Y-39182892D03*
X177442893Y-45472892D03*
X176122893Y-42312892D03*
X186102893Y-47432892D03*
X176752893Y-45482892D03*
D17*
X158172893Y-47182892D03*
D16*
X181492893Y-28882892D03*
X183892893Y-45572892D03*
X186690393Y-23562892D03*
X179022893Y-46652892D03*
D17*
X186302893Y-43632892D03*
X161732893Y-44182892D03*
X158237893Y-42682892D03*
D16*
X177442893Y-48082892D03*
X185632893Y-29702892D03*
D17*
X189602893Y-39132892D03*
D16*
X194892893Y-30572892D03*
X179082893Y-40852892D03*
D17*
X158172893Y-45682892D03*
X186302893Y-40632892D03*
D16*
X189872893Y-46622892D03*
D17*
X186302893Y-39132892D03*
X186302893Y-42132892D03*
X189602893Y-43632892D03*
X158237893Y-44192892D03*
D16*
X158112893Y-39812892D03*
X181542893Y-42242892D03*
X176772893Y-29142892D03*
D17*
X161732893Y-42682892D03*
X189602893Y-40632892D03*
D16*
X182832893Y-21822892D03*
D17*
X161732893Y-47182892D03*
X161732893Y-45682892D03*
D16*
X166622893Y-24462892D03*
D17*
X189602893Y-42132892D03*
D16*
X184030393Y-26842892D03*
X183902893Y-48922892D03*
X161882893Y-22622892D03*
X189532893Y-24932892D03*
X157412893Y-41882892D03*
X170562893Y-50342892D03*
X181542893Y-47882892D03*
X183932893Y-50142892D03*
X175982893Y-41302892D03*
X182842893Y-43532892D03*
X166002893Y-35212892D03*
X166002893Y-32692892D03*
X175938503Y-45462892D03*
X160602893Y-29662892D03*
X162592893Y-35372892D03*
X157412893Y-41082892D03*
X171812893Y-50182892D03*
X161872893Y-38682892D03*
X182842893Y-50142892D03*
X158182893Y-33942892D03*
X180022893Y-40852892D03*
X163362893Y-38702892D03*
X179512893Y-44392892D03*
X182842893Y-40802892D03*
X159942893Y-30202892D03*
X161402893Y-28372892D03*
X166662893Y-28372892D03*
X186352893Y-25982892D03*
X166282893Y-30832892D03*
X168722893Y-30192892D03*
X186342893Y-26872892D03*
X164162893Y-36892892D03*
X174412893Y-46472892D03*
X180182893Y-50142892D03*
X153442893Y-30422892D03*
X185342893Y-48732892D03*
X160212893Y-26362892D03*
X156642893Y-28902892D03*
X182842893Y-44402892D03*
X174672893Y-42662892D03*
X162102893Y-36292892D03*
X173712893Y-48042892D03*
X165052893Y-37562892D03*
X126437107Y-76318678D03*
X123097107Y-65128678D03*
X134337107Y-79898678D03*
X134337107Y-76368678D03*
X126437107Y-83988678D03*
X135097107Y-81438678D03*
X125747107Y-79488678D03*
X125117107Y-76318678D03*
X126437107Y-79478678D03*
X124197107Y-77878678D03*
X106407107Y-73188678D03*
D17*
X138597107Y-74638678D03*
D16*
X128017107Y-80658678D03*
D17*
X135297107Y-76138678D03*
D16*
X107107107Y-73818678D03*
X115617107Y-58468678D03*
X138867107Y-80628678D03*
D17*
X107232107Y-76688678D03*
D16*
X130487107Y-62888678D03*
D17*
X107232107Y-78198678D03*
X110727107Y-76688678D03*
D16*
X125767107Y-63148678D03*
X132897107Y-82928678D03*
X130537107Y-76248678D03*
D17*
X138597107Y-73138678D03*
D16*
X128077107Y-74858678D03*
D17*
X110727107Y-78188678D03*
X135297107Y-77638678D03*
X110727107Y-79688678D03*
D16*
X134627107Y-63708678D03*
D17*
X135297107Y-74638678D03*
X138597107Y-77638678D03*
D16*
X135684607Y-57568678D03*
D17*
X107167107Y-79688678D03*
X135297107Y-73138678D03*
X107167107Y-81188678D03*
D16*
X126437107Y-82088678D03*
D17*
X138597107Y-76138678D03*
D16*
X131827107Y-55828678D03*
D17*
X110727107Y-81188678D03*
D16*
X132887107Y-79578678D03*
X143887107Y-64578678D03*
X133024607Y-60848678D03*
X110877107Y-56628678D03*
X138527107Y-58938678D03*
X106407107Y-75888678D03*
X119557107Y-84348678D03*
X132927107Y-84148678D03*
X130537107Y-81888678D03*
X114997107Y-66698678D03*
X114997107Y-69218678D03*
X124977107Y-75308678D03*
X131837107Y-77538678D03*
X109597107Y-63668678D03*
X124932717Y-79468678D03*
X111587107Y-69378678D03*
X106407107Y-75088678D03*
X120807107Y-84188678D03*
X110867107Y-72688678D03*
X131837107Y-84148678D03*
X107177107Y-67948678D03*
X129017107Y-74858678D03*
X128507107Y-78398678D03*
X112357107Y-72708678D03*
X108937107Y-64208678D03*
X131837107Y-74808678D03*
X110397107Y-62378678D03*
X115657107Y-62378678D03*
X135347107Y-59988678D03*
X115277107Y-64838678D03*
X117717107Y-64198678D03*
X135337107Y-60878678D03*
X123407107Y-80478678D03*
X113157107Y-70898678D03*
X129177107Y-84148678D03*
X102437107Y-64428678D03*
X109207107Y-60368678D03*
X134337107Y-82738678D03*
X105637107Y-62908678D03*
X131837107Y-78408678D03*
X111097107Y-70298678D03*
X123667107Y-76668678D03*
X114047107Y-71568678D03*
X122707107Y-82048678D03*
X157412893Y-73188678D03*
X177442893Y-79478678D03*
X186102893Y-81438678D03*
X177442893Y-76318678D03*
X176752893Y-79488678D03*
X185342893Y-76368678D03*
X177442893Y-83988678D03*
X174102893Y-65128678D03*
X176122893Y-76318678D03*
X185342893Y-79898678D03*
X175202893Y-77878678D03*
X189872893Y-80628678D03*
X176772893Y-63148678D03*
D17*
X161732893Y-78188678D03*
D16*
X181492893Y-62888678D03*
D17*
X186302893Y-76138678D03*
D16*
X179082893Y-74858678D03*
D17*
X158237893Y-76688678D03*
X189602893Y-73138678D03*
X158172893Y-81188678D03*
X161732893Y-76688678D03*
D16*
X183902893Y-82928678D03*
X158112893Y-73818678D03*
X186690393Y-57568678D03*
X182832893Y-55828678D03*
D17*
X161732893Y-79688678D03*
X189602893Y-76138678D03*
D16*
X166622893Y-58468678D03*
X185632893Y-63708678D03*
D17*
X158172893Y-79688678D03*
D16*
X184030393Y-60848678D03*
D17*
X189602893Y-74638678D03*
X186302893Y-74638678D03*
D16*
X183892893Y-79578678D03*
D17*
X161732893Y-81188678D03*
X158237893Y-78198678D03*
D16*
X194892893Y-64578678D03*
X181542893Y-76248678D03*
D17*
X186302893Y-77638678D03*
X189602893Y-77638678D03*
D16*
X177442893Y-82088678D03*
D17*
X186302893Y-73138678D03*
D16*
X179022893Y-80658678D03*
X161882893Y-56628678D03*
X189532893Y-58938678D03*
X157412893Y-75888678D03*
X170562893Y-84348678D03*
X183932893Y-84148678D03*
X181542893Y-81888678D03*
X166002893Y-66698678D03*
X166002893Y-69218678D03*
X182842893Y-77538678D03*
X175982893Y-75308678D03*
X175938503Y-79468678D03*
X160602893Y-63668678D03*
X162592893Y-69378678D03*
X157412893Y-75088678D03*
X171812893Y-84188678D03*
X161872893Y-72688678D03*
X182842893Y-84148678D03*
X180022893Y-74858678D03*
X158182893Y-67948678D03*
X163362893Y-72708678D03*
X179512893Y-78398678D03*
X159942893Y-64208678D03*
X182842893Y-74808678D03*
X166662893Y-62378678D03*
X161402893Y-62378678D03*
X166282893Y-64838678D03*
X186352893Y-59988678D03*
X168722893Y-64198678D03*
X186342893Y-60878678D03*
X174412893Y-80478678D03*
X164162893Y-70898678D03*
X180182893Y-84148678D03*
X153442893Y-64428678D03*
X185342893Y-82738678D03*
X160212893Y-60368678D03*
X156642893Y-62908678D03*
X182842893Y-78408678D03*
X174672893Y-76668678D03*
X162102893Y-70298678D03*
X165052893Y-71568678D03*
X173712893Y-82048678D03*
X134337107Y-110374464D03*
X124197107Y-111884464D03*
X125747107Y-113494464D03*
X126437107Y-110324464D03*
X134337107Y-113904464D03*
X123097107Y-99134464D03*
X135097107Y-115444464D03*
X125117107Y-110324464D03*
X126437107Y-117994464D03*
X106407107Y-107194464D03*
X126437107Y-113484464D03*
X130487107Y-96894464D03*
D17*
X135297107Y-111644464D03*
X135297107Y-107144464D03*
D16*
X138867107Y-114634464D03*
D17*
X135297107Y-108644464D03*
X138597107Y-107144464D03*
X110727107Y-115194464D03*
X138597107Y-110144464D03*
X138597107Y-108644464D03*
X107232107Y-112204464D03*
D16*
X135684607Y-91574464D03*
X132887107Y-113584464D03*
D17*
X110727107Y-113694464D03*
X107167107Y-115194464D03*
D16*
X132897107Y-116934464D03*
X128017107Y-114664464D03*
D17*
X110727107Y-112194464D03*
D16*
X133024607Y-94854464D03*
X107107107Y-107824464D03*
X126437107Y-116094464D03*
D17*
X107167107Y-113694464D03*
D16*
X130537107Y-110254464D03*
X115617107Y-92474464D03*
D17*
X107232107Y-110694464D03*
X135297107Y-110144464D03*
X138597107Y-111644464D03*
D16*
X143887107Y-98584464D03*
X128077107Y-108864464D03*
X134627107Y-97714464D03*
X125767107Y-97154464D03*
X131827107Y-89834464D03*
D17*
X110727107Y-110694464D03*
D16*
X110877107Y-90634464D03*
X138527107Y-92944464D03*
X106407107Y-109894464D03*
X119557107Y-118354464D03*
X130537107Y-115894464D03*
X132927107Y-118154464D03*
X131837107Y-111544464D03*
X114997107Y-103224464D03*
X124977107Y-109314464D03*
X114997107Y-100704464D03*
X111587107Y-103384464D03*
X124932717Y-113474464D03*
X109597107Y-97674464D03*
X120807107Y-118194464D03*
X106407107Y-109094464D03*
X131837107Y-118154464D03*
X110867107Y-106694464D03*
X107177107Y-101954464D03*
X129017107Y-108864464D03*
X112357107Y-106714464D03*
X128507107Y-112404464D03*
X131837107Y-108814464D03*
X108937107Y-98214464D03*
X115657107Y-96384464D03*
X110397107Y-96384464D03*
X115277107Y-98844464D03*
X135347107Y-93994464D03*
X135337107Y-94884464D03*
X117717107Y-98204464D03*
X113157107Y-104904464D03*
X123407107Y-114484464D03*
X129177107Y-118154464D03*
X102437107Y-98434464D03*
X109207107Y-94374464D03*
X134337107Y-116744464D03*
X105637107Y-96914464D03*
X131837107Y-112414464D03*
X123667107Y-110674464D03*
X111097107Y-104304464D03*
X122707107Y-116054464D03*
X114047107Y-105574464D03*
X185342893Y-110374464D03*
X157412893Y-107194464D03*
X177442893Y-117994464D03*
X174102893Y-99134464D03*
X185342893Y-113904464D03*
X175202893Y-111884464D03*
X176122893Y-110324464D03*
X186102893Y-115444464D03*
X176752893Y-113494464D03*
X177442893Y-113484464D03*
X177442893Y-110324464D03*
X185632893Y-97714464D03*
D17*
X158172893Y-113694464D03*
X158237893Y-110694464D03*
X186302893Y-110144464D03*
D16*
X184030393Y-94854464D03*
D17*
X161732893Y-110694464D03*
X189602893Y-111644464D03*
D16*
X182832893Y-89834464D03*
X177442893Y-116094464D03*
X158112893Y-107824464D03*
X181492893Y-96894464D03*
D17*
X189602893Y-107144464D03*
D16*
X179082893Y-108864464D03*
D17*
X158237893Y-112204464D03*
D16*
X183892893Y-113584464D03*
D17*
X189602893Y-110144464D03*
D16*
X189872893Y-114634464D03*
D17*
X161732893Y-115194464D03*
D16*
X183902893Y-116934464D03*
X181542893Y-110254464D03*
D17*
X161732893Y-113694464D03*
D16*
X179022893Y-114664464D03*
X186690393Y-91574464D03*
X166622893Y-92474464D03*
D17*
X158172893Y-115194464D03*
X189602893Y-108644464D03*
D16*
X176772893Y-97154464D03*
D17*
X186302893Y-108644464D03*
D16*
X194892893Y-98584464D03*
D17*
X186302893Y-111644464D03*
X186302893Y-107144464D03*
X161732893Y-112194464D03*
D16*
X189532893Y-92944464D03*
X161882893Y-90634464D03*
X170562893Y-118354464D03*
X157412893Y-109894464D03*
X181542893Y-115894464D03*
X183932893Y-118154464D03*
X175982893Y-109314464D03*
X166002893Y-100704464D03*
X182842893Y-111544464D03*
X166002893Y-103224464D03*
X175938503Y-113474464D03*
X160602893Y-97674464D03*
X162592893Y-103384464D03*
X171812893Y-118194464D03*
X157412893Y-109094464D03*
X161872893Y-106694464D03*
X182842893Y-118154464D03*
X158182893Y-101954464D03*
X180022893Y-108864464D03*
X163362893Y-106714464D03*
X179512893Y-112404464D03*
X159942893Y-98214464D03*
X182842893Y-108814464D03*
X161402893Y-96384464D03*
X166662893Y-96384464D03*
X166282893Y-98844464D03*
X186352893Y-93994464D03*
X186342893Y-94884464D03*
X168722893Y-98204464D03*
X164162893Y-104904464D03*
X174412893Y-114484464D03*
X153442893Y-98434464D03*
X180182893Y-118154464D03*
X185342893Y-116744464D03*
X160212893Y-94374464D03*
X156642893Y-96914464D03*
X182842893Y-112414464D03*
X174672893Y-110674464D03*
X162102893Y-104304464D03*
X173712893Y-116054464D03*
X165052893Y-105574464D03*
D18*
X133757107Y-23462892D02*
X135227107Y-24932892D01*
X135227107Y-24932892D02*
X138527107Y-24932892D01*
X110877107Y-22622892D02*
X114817107Y-22622892D01*
X115657107Y-23462892D02*
X133757107Y-23462892D01*
X114817107Y-22622892D02*
X115657107Y-23462892D01*
X106407107Y-41882892D02*
X111097107Y-41882892D01*
X111097107Y-41882892D02*
X119557107Y-50342892D01*
X103447107Y-29202892D02*
X102527107Y-29202892D01*
X102527107Y-29202892D02*
X101167107Y-27842892D01*
X122497107Y-33752892D02*
X108007107Y-33762892D01*
X122497107Y-33752892D02*
X122998710Y-33752892D01*
X129748710Y-40502892D02*
X129748710Y-47094495D01*
X122998710Y-33752892D02*
X129748710Y-40502892D01*
X122872107Y-33752892D02*
X122497107Y-33752892D01*
X132927107Y-50142892D02*
X130667107Y-47882892D01*
X130667107Y-47882892D02*
X130537107Y-47882892D01*
X129748710Y-47094495D02*
X130537107Y-47882892D01*
X108007107Y-33762892D02*
X103447107Y-29202892D01*
X114997107Y-32692892D02*
X123787107Y-32692892D01*
X131847107Y-43522892D02*
X131837107Y-43532892D01*
X123787107Y-32692892D02*
X130787107Y-39692892D01*
X114997107Y-35212892D02*
X114907107Y-35352892D01*
X121577107Y-35212892D02*
X124977107Y-38612892D01*
X114997107Y-35212892D02*
X121577107Y-35212892D01*
X110557107Y-32692892D02*
X105707107Y-27842892D01*
X130787107Y-39692892D02*
X130787107Y-40652892D01*
X114997107Y-32692892D02*
X110557107Y-32692892D01*
X130787107Y-40652892D02*
X131847107Y-41712892D01*
X105707107Y-27842892D02*
X103707107Y-27842892D01*
X131847107Y-41712892D02*
X131847107Y-43522892D01*
X124977107Y-38612892D02*
X124977107Y-41302892D01*
X109477107Y-29552892D02*
X105227107Y-25302892D01*
X109597107Y-29662892D02*
X109477107Y-29552892D01*
X124932717Y-43028502D02*
X124932717Y-45462892D01*
X111587107Y-35372892D02*
X111907107Y-35832892D01*
X117737107Y-35832892D02*
X124932717Y-43028502D01*
X105227107Y-25302892D02*
X103707107Y-25302892D01*
X111907107Y-35832892D02*
X117737107Y-35832892D01*
X120807107Y-50072892D02*
X120807107Y-50182892D01*
X106407107Y-41082892D02*
X111817107Y-41082892D01*
X111817107Y-41082892D02*
X120807107Y-50072892D01*
X130367107Y-50962892D02*
X131837107Y-50142892D01*
X123207107Y-50962892D02*
X130367107Y-50962892D01*
X110867107Y-38682892D02*
X123207107Y-50962892D01*
X107177107Y-33942892D02*
X107537107Y-34202892D01*
X122387107Y-34222892D02*
X129017107Y-40852892D01*
X122387107Y-34202892D02*
X122387107Y-34222892D01*
X107537107Y-34202892D02*
X122387107Y-34202892D01*
X123900757Y-49372892D02*
X123027107Y-49372892D01*
X128507107Y-44392892D02*
X124623932Y-48649717D01*
X123027107Y-49372892D02*
X112357107Y-38702892D01*
X124623932Y-48649717D02*
X123900757Y-49372892D01*
X108937107Y-30202892D02*
X110987107Y-32252892D01*
X115337107Y-32012892D02*
X115577107Y-32252892D01*
X131837107Y-39802892D02*
X131837107Y-40802892D01*
X105477107Y-26552892D02*
X102417107Y-26552892D01*
X114657107Y-32012892D02*
X115337107Y-32012892D01*
X124287107Y-32252892D02*
X131837107Y-39802892D01*
X115577107Y-32252892D02*
X124287107Y-32252892D01*
X110987107Y-32252892D02*
X114417107Y-32252892D01*
X114417107Y-32252892D02*
X114657107Y-32012892D01*
X102417107Y-26552892D02*
X101167107Y-25302892D01*
X108937107Y-30202892D02*
X105477107Y-26552892D01*
X115657107Y-28372892D02*
X110397107Y-28372892D01*
X118207107Y-27902892D02*
X133427107Y-27902892D01*
X115277107Y-30832892D02*
X118207107Y-27902892D01*
X133427107Y-27902892D02*
X135347107Y-25982892D01*
X117717107Y-30192892D02*
X132017107Y-30192892D01*
X132017107Y-30192892D02*
X135337107Y-26872892D01*
X115147107Y-36892892D02*
X115397107Y-37142892D01*
X118877107Y-40622892D02*
X115397107Y-37142892D01*
X113157107Y-36892892D02*
X115147107Y-36892892D01*
X123407107Y-45152892D02*
X118877107Y-40622892D01*
X123407107Y-46472892D02*
X123407107Y-45152892D01*
X125562107Y-39887892D02*
X125562107Y-38117892D01*
X129177107Y-43491458D02*
X127812824Y-42127175D01*
X122057107Y-34612892D02*
X106627107Y-34612892D01*
X127737107Y-42062892D02*
X125562107Y-39887892D01*
X106627107Y-34612892D02*
X102437107Y-30422892D01*
X125562107Y-38117892D02*
X122057107Y-34612892D01*
X127812824Y-42127175D02*
X127737107Y-42062892D01*
X129177107Y-50142892D02*
X129177107Y-43491458D01*
X111417107Y-31832892D02*
X114227107Y-31832892D01*
X115717107Y-31582892D02*
X115967107Y-31832892D01*
X114477107Y-31582892D02*
X115717107Y-31582892D01*
X133527107Y-40632892D02*
X133527107Y-47012892D01*
X134337107Y-47822892D02*
X134337107Y-48732892D01*
X110337107Y-30752892D02*
X111417107Y-31832892D01*
X109207107Y-28194363D02*
X110337107Y-29324363D01*
X133527107Y-47012892D02*
X134337107Y-47822892D01*
X115967107Y-31832892D02*
X124727107Y-31832892D01*
X110337107Y-29324363D02*
X110337107Y-30752892D01*
X114227107Y-31832892D02*
X114477107Y-31582892D01*
X124727107Y-31832892D02*
X133527107Y-40632892D01*
X109207107Y-26362892D02*
X109207107Y-28194363D01*
X130857107Y-41512892D02*
X131137107Y-41792892D01*
X131837107Y-44402892D02*
X131300398Y-43879601D01*
X112247107Y-33312892D02*
X110047107Y-33312892D01*
X131837107Y-44402892D02*
X131837107Y-44292892D01*
X123597107Y-33312892D02*
X130157107Y-39872892D01*
X130157107Y-40812892D02*
X130857107Y-41512892D01*
X112247107Y-33312892D02*
X123597107Y-33312892D01*
X131837107Y-44292892D02*
X131827107Y-44282892D01*
X130857107Y-41512892D02*
X131017107Y-41672892D01*
X130157107Y-39872892D02*
X130157107Y-40812892D01*
X131137107Y-41792892D02*
X131137107Y-43716310D01*
X110047107Y-33312892D02*
X105637107Y-28902892D01*
X112247107Y-33312892D02*
X110042107Y-33312892D01*
X131137107Y-43716310D02*
X131300398Y-43879601D01*
X111097107Y-36292892D02*
X117527107Y-36292892D01*
X117527107Y-36292892D02*
X123667107Y-42662892D01*
X114047107Y-37562892D02*
X114047107Y-39382892D01*
X114047107Y-39382892D02*
X122707107Y-48042892D01*
X184762893Y-23462892D02*
X186232893Y-24932892D01*
X186232893Y-24932892D02*
X189532893Y-24932892D01*
X165822893Y-22622892D02*
X166662893Y-23462892D01*
X161882893Y-22622892D02*
X165822893Y-22622892D01*
X166662893Y-23462892D02*
X184762893Y-23462892D01*
X157412893Y-41882892D02*
X162102893Y-41882892D01*
X162102893Y-41882892D02*
X170562893Y-50342892D01*
X173877893Y-33752892D02*
X173502893Y-33752892D01*
X183932893Y-50142892D02*
X181672893Y-47882892D01*
X153532893Y-29202892D02*
X152172893Y-27842892D01*
X173502893Y-33752892D02*
X159012893Y-33762892D01*
X181672893Y-47882892D02*
X181542893Y-47882892D01*
X173502893Y-33752892D02*
X174004496Y-33752892D01*
X180754496Y-47094495D02*
X181542893Y-47882892D01*
X174004496Y-33752892D02*
X180754496Y-40502892D01*
X180754496Y-40502892D02*
X180754496Y-47094495D01*
X154452893Y-29202892D02*
X153532893Y-29202892D01*
X159012893Y-33762892D02*
X154452893Y-29202892D01*
X181792893Y-39692892D02*
X181792893Y-40652892D01*
X161562893Y-32692892D02*
X156712893Y-27842892D01*
X182852893Y-43522892D02*
X182842893Y-43532892D01*
X181792893Y-40652892D02*
X182852893Y-41712892D01*
X166002893Y-32692892D02*
X161562893Y-32692892D01*
X166002893Y-32692892D02*
X174792893Y-32692892D01*
X172582893Y-35212892D02*
X175982893Y-38612892D01*
X166002893Y-35212892D02*
X172582893Y-35212892D01*
X182852893Y-41712892D02*
X182852893Y-43522892D01*
X166002893Y-35212892D02*
X165912893Y-35352892D01*
X174792893Y-32692892D02*
X181792893Y-39692892D01*
X156712893Y-27842892D02*
X154712893Y-27842892D01*
X175982893Y-38612892D02*
X175982893Y-41302892D01*
X160482893Y-29552892D02*
X156232893Y-25302892D01*
X162912893Y-35832892D02*
X168742893Y-35832892D01*
X156232893Y-25302892D02*
X154712893Y-25302892D01*
X175938503Y-43028502D02*
X175938503Y-45462892D01*
X162592893Y-35372892D02*
X162912893Y-35832892D01*
X168742893Y-35832892D02*
X175938503Y-43028502D01*
X160602893Y-29662892D02*
X160482893Y-29552892D01*
X162822893Y-41082892D02*
X171812893Y-50072892D01*
X157412893Y-41082892D02*
X162822893Y-41082892D01*
X171812893Y-50072892D02*
X171812893Y-50182892D01*
X174212893Y-50962892D02*
X181372893Y-50962892D01*
X181372893Y-50962892D02*
X182842893Y-50142892D01*
X161872893Y-38682892D02*
X174212893Y-50962892D01*
X158542893Y-34202892D02*
X173392893Y-34202892D01*
X173392893Y-34202892D02*
X173392893Y-34222892D01*
X173392893Y-34222892D02*
X180022893Y-40852892D01*
X158182893Y-33942892D02*
X158542893Y-34202892D01*
X174032893Y-49372892D02*
X163362893Y-38702892D01*
X175629718Y-48649717D02*
X174906543Y-49372892D01*
X174906543Y-49372892D02*
X174032893Y-49372892D01*
X179512893Y-44392892D02*
X175629718Y-48649717D01*
X153422893Y-26552892D02*
X152172893Y-25302892D01*
X159942893Y-30202892D02*
X161992893Y-32252892D01*
X166582893Y-32252892D02*
X175292893Y-32252892D01*
X159942893Y-30202892D02*
X156482893Y-26552892D01*
X165422893Y-32252892D02*
X165662893Y-32012892D01*
X175292893Y-32252892D02*
X182842893Y-39802892D01*
X156482893Y-26552892D02*
X153422893Y-26552892D01*
X165662893Y-32012892D02*
X166342893Y-32012892D01*
X182842893Y-39802892D02*
X182842893Y-40802892D01*
X161992893Y-32252892D02*
X165422893Y-32252892D01*
X166342893Y-32012892D02*
X166582893Y-32252892D01*
X166662893Y-28372892D02*
X161402893Y-28372892D01*
X169212893Y-27902892D02*
X184432893Y-27902892D01*
X184432893Y-27902892D02*
X186352893Y-25982892D01*
X166282893Y-30832892D02*
X169212893Y-27902892D01*
X183022893Y-30192892D02*
X186342893Y-26872892D01*
X168722893Y-30192892D02*
X183022893Y-30192892D01*
X166152893Y-36892892D02*
X166402893Y-37142892D01*
X169882893Y-40622892D02*
X166402893Y-37142892D01*
X174412893Y-45152892D02*
X169882893Y-40622892D01*
X164162893Y-36892892D02*
X166152893Y-36892892D01*
X174412893Y-46472892D02*
X174412893Y-45152892D01*
X178742893Y-42062892D02*
X176567893Y-39887892D01*
X157632893Y-34612892D02*
X153442893Y-30422892D01*
X180182893Y-50142892D02*
X180182893Y-43491458D01*
X176567893Y-39887892D02*
X176567893Y-38117892D01*
X176567893Y-38117892D02*
X173062893Y-34612892D01*
X178818610Y-42127175D02*
X178742893Y-42062892D01*
X180182893Y-43491458D02*
X178818610Y-42127175D01*
X173062893Y-34612892D02*
X157632893Y-34612892D01*
X161342893Y-29324363D02*
X161342893Y-30752892D01*
X160212893Y-26362892D02*
X160212893Y-28194363D01*
X165482893Y-31582892D02*
X166722893Y-31582892D01*
X161342893Y-30752892D02*
X162422893Y-31832892D01*
X162422893Y-31832892D02*
X165232893Y-31832892D01*
X175732893Y-31832892D02*
X184532893Y-40632892D01*
X184532893Y-40632892D02*
X184532893Y-47012892D01*
X185342893Y-47822892D02*
X185342893Y-48732892D01*
X160212893Y-28194363D02*
X161342893Y-29324363D01*
X165232893Y-31832892D02*
X165482893Y-31582892D01*
X184532893Y-47012892D02*
X185342893Y-47822892D01*
X166722893Y-31582892D02*
X166972893Y-31832892D01*
X166972893Y-31832892D02*
X175732893Y-31832892D01*
X182842893Y-44402892D02*
X182306184Y-43879601D01*
X161052893Y-33312892D02*
X156642893Y-28902892D01*
X163252893Y-33312892D02*
X161052893Y-33312892D01*
X182842893Y-44402892D02*
X182842893Y-44292892D01*
X181162893Y-40812892D02*
X181862893Y-41512892D01*
X181162893Y-39872892D02*
X181162893Y-40812892D01*
X182842893Y-44292892D02*
X182832893Y-44282892D01*
X181862893Y-41512892D02*
X182022893Y-41672892D01*
X163252893Y-33312892D02*
X161047893Y-33312892D01*
X163252893Y-33312892D02*
X174602893Y-33312892D01*
X182142893Y-43716310D02*
X182306184Y-43879601D01*
X174602893Y-33312892D02*
X181162893Y-39872892D01*
X181862893Y-41512892D02*
X182142893Y-41792892D01*
X182142893Y-41792892D02*
X182142893Y-43716310D01*
X162102893Y-36292892D02*
X168532893Y-36292892D01*
X168532893Y-36292892D02*
X174672893Y-42662892D01*
X165052893Y-39382892D02*
X173712893Y-48042892D01*
X165052893Y-37562892D02*
X165052893Y-39382892D01*
X133757107Y-57468678D02*
X135227107Y-58938678D01*
X115657107Y-57468678D02*
X133757107Y-57468678D01*
X135227107Y-58938678D02*
X138527107Y-58938678D01*
X110877107Y-56628678D02*
X114817107Y-56628678D01*
X114817107Y-56628678D02*
X115657107Y-57468678D01*
X111097107Y-75888678D02*
X119557107Y-84348678D01*
X106407107Y-75888678D02*
X111097107Y-75888678D01*
X122497107Y-67758678D02*
X108007107Y-67768678D01*
X103447107Y-63208678D02*
X102527107Y-63208678D01*
X122998710Y-67758678D02*
X129748710Y-74508678D01*
X129748710Y-74508678D02*
X129748710Y-81100281D01*
X102527107Y-63208678D02*
X101167107Y-61848678D01*
X129748710Y-81100281D02*
X130537107Y-81888678D01*
X122497107Y-67758678D02*
X122998710Y-67758678D01*
X130667107Y-81888678D02*
X130537107Y-81888678D01*
X108007107Y-67768678D02*
X103447107Y-63208678D01*
X132927107Y-84148678D02*
X130667107Y-81888678D01*
X122872107Y-67758678D02*
X122497107Y-67758678D01*
X110557107Y-66698678D02*
X105707107Y-61848678D01*
X124977107Y-72618678D02*
X124977107Y-75308678D01*
X131847107Y-75718678D02*
X131847107Y-77528678D01*
X130787107Y-73698678D02*
X130787107Y-74658678D01*
X131847107Y-77528678D02*
X131837107Y-77538678D01*
X121577107Y-69218678D02*
X124977107Y-72618678D01*
X114997107Y-69218678D02*
X121577107Y-69218678D01*
X114997107Y-66698678D02*
X123787107Y-66698678D01*
X130787107Y-74658678D02*
X131847107Y-75718678D01*
X123787107Y-66698678D02*
X130787107Y-73698678D01*
X114997107Y-66698678D02*
X110557107Y-66698678D01*
X114997107Y-69218678D02*
X114907107Y-69358678D01*
X105707107Y-61848678D02*
X103707107Y-61848678D01*
X109597107Y-63668678D02*
X109477107Y-63558678D01*
X109477107Y-63558678D02*
X105227107Y-59308678D01*
X111907107Y-69838678D02*
X117737107Y-69838678D01*
X117737107Y-69838678D02*
X124932717Y-77034288D01*
X105227107Y-59308678D02*
X103707107Y-59308678D01*
X124932717Y-77034288D02*
X124932717Y-79468678D01*
X111587107Y-69378678D02*
X111907107Y-69838678D01*
X106407107Y-75088678D02*
X111817107Y-75088678D01*
X120807107Y-84078678D02*
X120807107Y-84188678D01*
X111817107Y-75088678D02*
X120807107Y-84078678D01*
X130367107Y-84968678D02*
X131837107Y-84148678D01*
X110867107Y-72688678D02*
X123207107Y-84968678D01*
X123207107Y-84968678D02*
X130367107Y-84968678D01*
X122387107Y-68208678D02*
X122387107Y-68228678D01*
X107537107Y-68208678D02*
X122387107Y-68208678D01*
X122387107Y-68228678D02*
X129017107Y-74858678D01*
X107177107Y-67948678D02*
X107537107Y-68208678D01*
X123027107Y-83378678D02*
X112357107Y-72708678D01*
X123900757Y-83378678D02*
X123027107Y-83378678D01*
X128507107Y-78398678D02*
X124623932Y-82655503D01*
X124623932Y-82655503D02*
X123900757Y-83378678D01*
X131837107Y-73808678D02*
X131837107Y-74808678D01*
X110987107Y-66258678D02*
X114417107Y-66258678D01*
X108937107Y-64208678D02*
X105477107Y-60558678D01*
X102417107Y-60558678D02*
X101167107Y-59308678D01*
X124287107Y-66258678D02*
X131837107Y-73808678D01*
X105477107Y-60558678D02*
X102417107Y-60558678D01*
X114417107Y-66258678D02*
X114657107Y-66018678D01*
X108937107Y-64208678D02*
X110987107Y-66258678D01*
X114657107Y-66018678D02*
X115337107Y-66018678D01*
X115577107Y-66258678D02*
X124287107Y-66258678D01*
X115337107Y-66018678D02*
X115577107Y-66258678D01*
X115657107Y-62378678D02*
X110397107Y-62378678D01*
X118207107Y-61908678D02*
X133427107Y-61908678D01*
X115277107Y-64838678D02*
X118207107Y-61908678D01*
X133427107Y-61908678D02*
X135347107Y-59988678D01*
X117717107Y-64198678D02*
X132017107Y-64198678D01*
X132017107Y-64198678D02*
X135337107Y-60878678D01*
X123407107Y-80478678D02*
X123407107Y-79158678D01*
X115147107Y-70898678D02*
X115397107Y-71148678D01*
X123407107Y-79158678D02*
X118877107Y-74628678D01*
X118877107Y-74628678D02*
X115397107Y-71148678D01*
X113157107Y-70898678D02*
X115147107Y-70898678D01*
X122057107Y-68618678D02*
X106627107Y-68618678D01*
X129177107Y-77497244D02*
X127812824Y-76132961D01*
X127737107Y-76068678D02*
X125562107Y-73893678D01*
X106627107Y-68618678D02*
X102437107Y-64428678D01*
X129177107Y-84148678D02*
X129177107Y-77497244D01*
X127812824Y-76132961D02*
X127737107Y-76068678D01*
X125562107Y-72123678D02*
X122057107Y-68618678D01*
X125562107Y-73893678D02*
X125562107Y-72123678D01*
X110337107Y-63330149D02*
X110337107Y-64758678D01*
X110337107Y-64758678D02*
X111417107Y-65838678D01*
X124727107Y-65838678D02*
X133527107Y-74638678D01*
X109207107Y-62200149D02*
X110337107Y-63330149D01*
X133527107Y-74638678D02*
X133527107Y-81018678D01*
X114477107Y-65588678D02*
X115717107Y-65588678D01*
X134337107Y-81828678D02*
X134337107Y-82738678D01*
X109207107Y-60368678D02*
X109207107Y-62200149D01*
X114227107Y-65838678D02*
X114477107Y-65588678D01*
X111417107Y-65838678D02*
X114227107Y-65838678D01*
X115717107Y-65588678D02*
X115967107Y-65838678D01*
X133527107Y-81018678D02*
X134337107Y-81828678D01*
X115967107Y-65838678D02*
X124727107Y-65838678D01*
X130157107Y-73878678D02*
X130157107Y-74818678D01*
X123597107Y-67318678D02*
X130157107Y-73878678D01*
X131837107Y-78298678D02*
X131827107Y-78288678D01*
X130157107Y-74818678D02*
X130857107Y-75518678D01*
X131137107Y-77722096D02*
X131300398Y-77885387D01*
X112247107Y-67318678D02*
X110047107Y-67318678D01*
X130857107Y-75518678D02*
X131137107Y-75798678D01*
X112247107Y-67318678D02*
X110042107Y-67318678D01*
X131837107Y-78408678D02*
X131300398Y-77885387D01*
X131137107Y-75798678D02*
X131137107Y-77722096D01*
X110047107Y-67318678D02*
X105637107Y-62908678D01*
X112247107Y-67318678D02*
X123597107Y-67318678D01*
X130857107Y-75518678D02*
X131017107Y-75678678D01*
X131837107Y-78408678D02*
X131837107Y-78298678D01*
X117527107Y-70298678D02*
X123667107Y-76668678D01*
X111097107Y-70298678D02*
X117527107Y-70298678D01*
X114047107Y-71568678D02*
X114047107Y-73388678D01*
X114047107Y-73388678D02*
X122707107Y-82048678D01*
X184762893Y-57468678D02*
X186232893Y-58938678D01*
X165822893Y-56628678D02*
X166662893Y-57468678D01*
X161882893Y-56628678D02*
X165822893Y-56628678D01*
X166662893Y-57468678D02*
X184762893Y-57468678D01*
X186232893Y-58938678D02*
X189532893Y-58938678D01*
X157412893Y-75888678D02*
X162102893Y-75888678D01*
X162102893Y-75888678D02*
X170562893Y-84348678D01*
X154452893Y-63208678D02*
X153532893Y-63208678D01*
X180754496Y-81100281D02*
X181542893Y-81888678D01*
X174004496Y-67758678D02*
X180754496Y-74508678D01*
X180754496Y-74508678D02*
X180754496Y-81100281D01*
X173502893Y-67758678D02*
X159012893Y-67768678D01*
X181672893Y-81888678D02*
X181542893Y-81888678D01*
X159012893Y-67768678D02*
X154452893Y-63208678D01*
X153532893Y-63208678D02*
X152172893Y-61848678D01*
X173502893Y-67758678D02*
X174004496Y-67758678D01*
X183932893Y-84148678D02*
X181672893Y-81888678D01*
X173877893Y-67758678D02*
X173502893Y-67758678D01*
X156712893Y-61848678D02*
X154712893Y-61848678D01*
X166002893Y-66698678D02*
X161562893Y-66698678D01*
X175982893Y-72618678D02*
X175982893Y-75308678D01*
X181792893Y-73698678D02*
X181792893Y-74658678D01*
X166002893Y-69218678D02*
X172582893Y-69218678D01*
X172582893Y-69218678D02*
X175982893Y-72618678D01*
X182852893Y-75718678D02*
X182852893Y-77528678D01*
X166002893Y-69218678D02*
X165912893Y-69358678D01*
X181792893Y-74658678D02*
X182852893Y-75718678D01*
X174792893Y-66698678D02*
X181792893Y-73698678D01*
X161562893Y-66698678D02*
X156712893Y-61848678D01*
X182852893Y-77528678D02*
X182842893Y-77538678D01*
X166002893Y-66698678D02*
X174792893Y-66698678D01*
X168742893Y-69838678D02*
X175938503Y-77034288D01*
X162912893Y-69838678D02*
X168742893Y-69838678D01*
X160482893Y-63558678D02*
X156232893Y-59308678D01*
X160602893Y-63668678D02*
X160482893Y-63558678D01*
X162592893Y-69378678D02*
X162912893Y-69838678D01*
X175938503Y-77034288D02*
X175938503Y-79468678D01*
X156232893Y-59308678D02*
X154712893Y-59308678D01*
X171812893Y-84078678D02*
X171812893Y-84188678D01*
X162822893Y-75088678D02*
X171812893Y-84078678D01*
X157412893Y-75088678D02*
X162822893Y-75088678D01*
X161872893Y-72688678D02*
X174212893Y-84968678D01*
X174212893Y-84968678D02*
X181372893Y-84968678D01*
X181372893Y-84968678D02*
X182842893Y-84148678D01*
X173392893Y-68228678D02*
X180022893Y-74858678D01*
X158182893Y-67948678D02*
X158542893Y-68208678D01*
X158542893Y-68208678D02*
X173392893Y-68208678D01*
X173392893Y-68208678D02*
X173392893Y-68228678D01*
X179512893Y-78398678D02*
X175629718Y-82655503D01*
X174032893Y-83378678D02*
X163362893Y-72708678D01*
X175629718Y-82655503D02*
X174906543Y-83378678D01*
X174906543Y-83378678D02*
X174032893Y-83378678D01*
X166582893Y-66258678D02*
X175292893Y-66258678D01*
X175292893Y-66258678D02*
X182842893Y-73808678D01*
X166342893Y-66018678D02*
X166582893Y-66258678D01*
X159942893Y-64208678D02*
X161992893Y-66258678D01*
X159942893Y-64208678D02*
X156482893Y-60558678D01*
X165422893Y-66258678D02*
X165662893Y-66018678D01*
X156482893Y-60558678D02*
X153422893Y-60558678D01*
X161992893Y-66258678D02*
X165422893Y-66258678D01*
X182842893Y-73808678D02*
X182842893Y-74808678D01*
X153422893Y-60558678D02*
X152172893Y-59308678D01*
X165662893Y-66018678D02*
X166342893Y-66018678D01*
X166662893Y-62378678D02*
X161402893Y-62378678D01*
X169212893Y-61908678D02*
X184432893Y-61908678D01*
X166282893Y-64838678D02*
X169212893Y-61908678D01*
X184432893Y-61908678D02*
X186352893Y-59988678D01*
X183022893Y-64198678D02*
X186342893Y-60878678D01*
X168722893Y-64198678D02*
X183022893Y-64198678D01*
X166152893Y-70898678D02*
X166402893Y-71148678D01*
X174412893Y-79158678D02*
X169882893Y-74628678D01*
X169882893Y-74628678D02*
X166402893Y-71148678D01*
X174412893Y-80478678D02*
X174412893Y-79158678D01*
X164162893Y-70898678D02*
X166152893Y-70898678D01*
X178818610Y-76132961D02*
X178742893Y-76068678D01*
X157632893Y-68618678D02*
X153442893Y-64428678D01*
X173062893Y-68618678D02*
X157632893Y-68618678D01*
X180182893Y-77497244D02*
X178818610Y-76132961D01*
X178742893Y-76068678D02*
X176567893Y-73893678D01*
X180182893Y-84148678D02*
X180182893Y-77497244D01*
X176567893Y-73893678D02*
X176567893Y-72123678D01*
X176567893Y-72123678D02*
X173062893Y-68618678D01*
X175732893Y-65838678D02*
X184532893Y-74638678D01*
X165482893Y-65588678D02*
X166722893Y-65588678D01*
X160212893Y-60368678D02*
X160212893Y-62200149D01*
X165232893Y-65838678D02*
X165482893Y-65588678D01*
X185342893Y-81828678D02*
X185342893Y-82738678D01*
X162422893Y-65838678D02*
X165232893Y-65838678D01*
X161342893Y-64758678D02*
X162422893Y-65838678D01*
X166722893Y-65588678D02*
X166972893Y-65838678D01*
X166972893Y-65838678D02*
X175732893Y-65838678D01*
X184532893Y-74638678D02*
X184532893Y-81018678D01*
X184532893Y-81018678D02*
X185342893Y-81828678D01*
X161342893Y-63330149D02*
X161342893Y-64758678D01*
X160212893Y-62200149D02*
X161342893Y-63330149D01*
X182142893Y-77722096D02*
X182306184Y-77885387D01*
X163252893Y-67318678D02*
X161052893Y-67318678D01*
X181162893Y-74818678D02*
X181862893Y-75518678D01*
X163252893Y-67318678D02*
X174602893Y-67318678D01*
X174602893Y-67318678D02*
X181162893Y-73878678D01*
X182842893Y-78408678D02*
X182842893Y-78298678D01*
X161052893Y-67318678D02*
X156642893Y-62908678D01*
X163252893Y-67318678D02*
X161047893Y-67318678D01*
X182842893Y-78298678D02*
X182832893Y-78288678D01*
X181862893Y-75518678D02*
X182142893Y-75798678D01*
X181862893Y-75518678D02*
X182022893Y-75678678D01*
X182842893Y-78408678D02*
X182306184Y-77885387D01*
X181162893Y-73878678D02*
X181162893Y-74818678D01*
X182142893Y-75798678D02*
X182142893Y-77722096D01*
X162102893Y-70298678D02*
X168532893Y-70298678D01*
X168532893Y-70298678D02*
X174672893Y-76668678D01*
X165052893Y-71568678D02*
X165052893Y-73388678D01*
X165052893Y-73388678D02*
X173712893Y-82048678D01*
X110877107Y-90634464D02*
X114817107Y-90634464D01*
X114817107Y-90634464D02*
X115657107Y-91474464D01*
X115657107Y-91474464D02*
X133757107Y-91474464D01*
X135227107Y-92944464D02*
X138527107Y-92944464D01*
X133757107Y-91474464D02*
X135227107Y-92944464D01*
X106407107Y-109894464D02*
X111097107Y-109894464D01*
X111097107Y-109894464D02*
X119557107Y-118354464D01*
X129748710Y-108514464D02*
X129748710Y-115106067D01*
X102527107Y-97214464D02*
X101167107Y-95854464D01*
X108007107Y-101774464D02*
X103447107Y-97214464D01*
X130667107Y-115894464D02*
X130537107Y-115894464D01*
X129748710Y-115106067D02*
X130537107Y-115894464D01*
X103447107Y-97214464D02*
X102527107Y-97214464D01*
X122497107Y-101764464D02*
X108007107Y-101774464D01*
X122998710Y-101764464D02*
X129748710Y-108514464D01*
X132927107Y-118154464D02*
X130667107Y-115894464D01*
X122497107Y-101764464D02*
X122998710Y-101764464D01*
X122872107Y-101764464D02*
X122497107Y-101764464D01*
X114997107Y-103224464D02*
X114907107Y-103364464D01*
X114997107Y-103224464D02*
X121577107Y-103224464D01*
X110557107Y-100704464D02*
X105707107Y-95854464D01*
X131847107Y-109724464D02*
X131847107Y-111534464D01*
X124977107Y-106624464D02*
X124977107Y-109314464D01*
X105707107Y-95854464D02*
X103707107Y-95854464D01*
X131847107Y-111534464D02*
X131837107Y-111544464D01*
X121577107Y-103224464D02*
X124977107Y-106624464D01*
X114997107Y-100704464D02*
X110557107Y-100704464D01*
X114997107Y-100704464D02*
X123787107Y-100704464D01*
X130787107Y-107704464D02*
X130787107Y-108664464D01*
X130787107Y-108664464D02*
X131847107Y-109724464D01*
X123787107Y-100704464D02*
X130787107Y-107704464D01*
X109597107Y-97674464D02*
X109477107Y-97564464D01*
X105227107Y-93314464D02*
X103707107Y-93314464D01*
X117737107Y-103844464D02*
X124932717Y-111040074D01*
X111907107Y-103844464D02*
X117737107Y-103844464D01*
X109477107Y-97564464D02*
X105227107Y-93314464D01*
X111587107Y-103384464D02*
X111907107Y-103844464D01*
X124932717Y-111040074D02*
X124932717Y-113474464D01*
X106407107Y-109094464D02*
X111817107Y-109094464D01*
X111817107Y-109094464D02*
X120807107Y-118084464D01*
X120807107Y-118084464D02*
X120807107Y-118194464D01*
X130367107Y-118974464D02*
X131837107Y-118154464D01*
X110867107Y-106694464D02*
X123207107Y-118974464D01*
X123207107Y-118974464D02*
X130367107Y-118974464D01*
X107177107Y-101954464D02*
X107537107Y-102214464D01*
X122387107Y-102214464D02*
X122387107Y-102234464D01*
X107537107Y-102214464D02*
X122387107Y-102214464D01*
X122387107Y-102234464D02*
X129017107Y-108864464D01*
X128507107Y-112404464D02*
X124623932Y-116661289D01*
X123900757Y-117384464D02*
X123027107Y-117384464D01*
X124623932Y-116661289D02*
X123900757Y-117384464D01*
X123027107Y-117384464D02*
X112357107Y-106714464D01*
X115577107Y-100264464D02*
X124287107Y-100264464D01*
X114657107Y-100024464D02*
X115337107Y-100024464D01*
X115337107Y-100024464D02*
X115577107Y-100264464D01*
X105477107Y-94564464D02*
X102417107Y-94564464D01*
X124287107Y-100264464D02*
X131837107Y-107814464D01*
X110987107Y-100264464D02*
X114417107Y-100264464D01*
X108937107Y-98214464D02*
X105477107Y-94564464D01*
X114417107Y-100264464D02*
X114657107Y-100024464D01*
X131837107Y-107814464D02*
X131837107Y-108814464D01*
X102417107Y-94564464D02*
X101167107Y-93314464D01*
X108937107Y-98214464D02*
X110987107Y-100264464D01*
X115657107Y-96384464D02*
X110397107Y-96384464D01*
X133427107Y-95914464D02*
X135347107Y-93994464D01*
X115277107Y-98844464D02*
X118207107Y-95914464D01*
X118207107Y-95914464D02*
X133427107Y-95914464D01*
X132017107Y-98204464D02*
X135337107Y-94884464D01*
X117717107Y-98204464D02*
X132017107Y-98204464D01*
X118877107Y-108634464D02*
X115397107Y-105154464D01*
X123407107Y-114484464D02*
X123407107Y-113164464D01*
X113157107Y-104904464D02*
X115147107Y-104904464D01*
X123407107Y-113164464D02*
X118877107Y-108634464D01*
X115147107Y-104904464D02*
X115397107Y-105154464D01*
X127812824Y-110138747D02*
X127737107Y-110074464D01*
X129177107Y-111503030D02*
X127812824Y-110138747D01*
X129177107Y-118154464D02*
X129177107Y-111503030D01*
X122057107Y-102624464D02*
X106627107Y-102624464D01*
X106627107Y-102624464D02*
X102437107Y-98434464D01*
X125562107Y-106129464D02*
X122057107Y-102624464D01*
X125562107Y-107899464D02*
X125562107Y-106129464D01*
X127737107Y-110074464D02*
X125562107Y-107899464D01*
X134337107Y-115834464D02*
X134337107Y-116744464D01*
X115717107Y-99594464D02*
X115967107Y-99844464D01*
X114477107Y-99594464D02*
X115717107Y-99594464D01*
X133527107Y-115024464D02*
X134337107Y-115834464D01*
X115967107Y-99844464D02*
X124727107Y-99844464D01*
X109207107Y-94374464D02*
X109207107Y-96205935D01*
X110337107Y-97335935D02*
X110337107Y-98764464D01*
X111417107Y-99844464D02*
X114227107Y-99844464D01*
X109207107Y-96205935D02*
X110337107Y-97335935D01*
X110337107Y-98764464D02*
X111417107Y-99844464D01*
X114227107Y-99844464D02*
X114477107Y-99594464D01*
X133527107Y-108644464D02*
X133527107Y-115024464D01*
X124727107Y-99844464D02*
X133527107Y-108644464D01*
X110047107Y-101324464D02*
X105637107Y-96914464D01*
X123597107Y-101324464D02*
X130157107Y-107884464D01*
X130857107Y-109524464D02*
X131017107Y-109684464D01*
X130857107Y-109524464D02*
X131137107Y-109804464D01*
X130157107Y-107884464D02*
X130157107Y-108824464D01*
X112247107Y-101324464D02*
X123597107Y-101324464D01*
X112247107Y-101324464D02*
X110042107Y-101324464D01*
X131837107Y-112414464D02*
X131837107Y-112304464D01*
X131837107Y-112414464D02*
X131300398Y-111891173D01*
X130157107Y-108824464D02*
X130857107Y-109524464D01*
X112247107Y-101324464D02*
X110047107Y-101324464D01*
X131137107Y-109804464D02*
X131137107Y-111727882D01*
X131137107Y-111727882D02*
X131300398Y-111891173D01*
X131837107Y-112304464D02*
X131827107Y-112294464D01*
X111097107Y-104304464D02*
X117527107Y-104304464D01*
X117527107Y-104304464D02*
X123667107Y-110674464D01*
X114047107Y-105574464D02*
X114047107Y-107394464D01*
X114047107Y-107394464D02*
X122707107Y-116054464D01*
X165822893Y-90634464D02*
X166662893Y-91474464D01*
X184762893Y-91474464D02*
X186232893Y-92944464D01*
X161882893Y-90634464D02*
X165822893Y-90634464D01*
X166662893Y-91474464D02*
X184762893Y-91474464D01*
X186232893Y-92944464D02*
X189532893Y-92944464D01*
X157412893Y-109894464D02*
X162102893Y-109894464D01*
X162102893Y-109894464D02*
X170562893Y-118354464D01*
X174004496Y-101764464D02*
X180754496Y-108514464D01*
X180754496Y-108514464D02*
X180754496Y-115106067D01*
X173502893Y-101764464D02*
X159012893Y-101774464D01*
X159012893Y-101774464D02*
X154452893Y-97214464D01*
X173877893Y-101764464D02*
X173502893Y-101764464D01*
X183932893Y-118154464D02*
X181672893Y-115894464D01*
X154452893Y-97214464D02*
X153532893Y-97214464D01*
X181672893Y-115894464D02*
X181542893Y-115894464D01*
X180754496Y-115106067D02*
X181542893Y-115894464D01*
X153532893Y-97214464D02*
X152172893Y-95854464D01*
X173502893Y-101764464D02*
X174004496Y-101764464D01*
X181792893Y-108664464D02*
X182852893Y-109724464D01*
X161562893Y-100704464D02*
X156712893Y-95854464D01*
X166002893Y-100704464D02*
X174792893Y-100704464D01*
X174792893Y-100704464D02*
X181792893Y-107704464D01*
X172582893Y-103224464D02*
X175982893Y-106624464D01*
X166002893Y-103224464D02*
X165912893Y-103364464D01*
X166002893Y-100704464D02*
X161562893Y-100704464D01*
X175982893Y-106624464D02*
X175982893Y-109314464D01*
X182852893Y-109724464D02*
X182852893Y-111534464D01*
X156712893Y-95854464D02*
X154712893Y-95854464D01*
X181792893Y-107704464D02*
X181792893Y-108664464D01*
X182852893Y-111534464D02*
X182842893Y-111544464D01*
X166002893Y-103224464D02*
X172582893Y-103224464D01*
X160602893Y-97674464D02*
X160482893Y-97564464D01*
X175938503Y-111040074D02*
X175938503Y-113474464D01*
X168742893Y-103844464D02*
X175938503Y-111040074D01*
X156232893Y-93314464D02*
X154712893Y-93314464D01*
X162912893Y-103844464D02*
X168742893Y-103844464D01*
X162592893Y-103384464D02*
X162912893Y-103844464D01*
X160482893Y-97564464D02*
X156232893Y-93314464D01*
X162822893Y-109094464D02*
X171812893Y-118084464D01*
X171812893Y-118084464D02*
X171812893Y-118194464D01*
X157412893Y-109094464D02*
X162822893Y-109094464D01*
X181372893Y-118974464D02*
X182842893Y-118154464D01*
X174212893Y-118974464D02*
X181372893Y-118974464D01*
X161872893Y-106694464D02*
X174212893Y-118974464D01*
X158542893Y-102214464D02*
X173392893Y-102214464D01*
X173392893Y-102234464D02*
X180022893Y-108864464D01*
X173392893Y-102214464D02*
X173392893Y-102234464D01*
X158182893Y-101954464D02*
X158542893Y-102214464D01*
X175629718Y-116661289D02*
X174906543Y-117384464D01*
X179512893Y-112404464D02*
X175629718Y-116661289D01*
X174032893Y-117384464D02*
X163362893Y-106714464D01*
X174906543Y-117384464D02*
X174032893Y-117384464D01*
X165422893Y-100264464D02*
X165662893Y-100024464D01*
X159942893Y-98214464D02*
X156482893Y-94564464D01*
X161992893Y-100264464D02*
X165422893Y-100264464D01*
X166342893Y-100024464D02*
X166582893Y-100264464D01*
X165662893Y-100024464D02*
X166342893Y-100024464D01*
X175292893Y-100264464D02*
X182842893Y-107814464D01*
X156482893Y-94564464D02*
X153422893Y-94564464D01*
X182842893Y-107814464D02*
X182842893Y-108814464D01*
X159942893Y-98214464D02*
X161992893Y-100264464D01*
X153422893Y-94564464D02*
X152172893Y-93314464D01*
X166582893Y-100264464D02*
X175292893Y-100264464D01*
X166662893Y-96384464D02*
X161402893Y-96384464D01*
X166282893Y-98844464D02*
X169212893Y-95914464D01*
X184432893Y-95914464D02*
X186352893Y-93994464D01*
X169212893Y-95914464D02*
X184432893Y-95914464D01*
X168722893Y-98204464D02*
X183022893Y-98204464D01*
X183022893Y-98204464D02*
X186342893Y-94884464D01*
X164162893Y-104904464D02*
X166152893Y-104904464D01*
X174412893Y-114484464D02*
X174412893Y-113164464D01*
X169882893Y-108634464D02*
X166402893Y-105154464D01*
X174412893Y-113164464D02*
X169882893Y-108634464D01*
X166152893Y-104904464D02*
X166402893Y-105154464D01*
X178818610Y-110138747D02*
X178742893Y-110074464D01*
X180182893Y-111503030D02*
X178818610Y-110138747D01*
X178742893Y-110074464D02*
X176567893Y-107899464D01*
X176567893Y-107899464D02*
X176567893Y-106129464D01*
X176567893Y-106129464D02*
X173062893Y-102624464D01*
X157632893Y-102624464D02*
X153442893Y-98434464D01*
X173062893Y-102624464D02*
X157632893Y-102624464D01*
X180182893Y-118154464D02*
X180182893Y-111503030D01*
X184532893Y-115024464D02*
X185342893Y-115834464D01*
X161342893Y-98764464D02*
X162422893Y-99844464D01*
X166722893Y-99594464D02*
X166972893Y-99844464D01*
X160212893Y-94374464D02*
X160212893Y-96205935D01*
X160212893Y-96205935D02*
X161342893Y-97335935D01*
X185342893Y-115834464D02*
X185342893Y-116744464D01*
X165482893Y-99594464D02*
X166722893Y-99594464D01*
X184532893Y-108644464D02*
X184532893Y-115024464D01*
X162422893Y-99844464D02*
X165232893Y-99844464D01*
X175732893Y-99844464D02*
X184532893Y-108644464D01*
X166972893Y-99844464D02*
X175732893Y-99844464D01*
X161342893Y-97335935D02*
X161342893Y-98764464D01*
X165232893Y-99844464D02*
X165482893Y-99594464D01*
X182842893Y-112304464D02*
X182832893Y-112294464D01*
X182142893Y-109804464D02*
X182142893Y-111727882D01*
X181862893Y-109524464D02*
X182142893Y-109804464D01*
X174602893Y-101324464D02*
X181162893Y-107884464D01*
X181162893Y-107884464D02*
X181162893Y-108824464D01*
X163252893Y-101324464D02*
X161047893Y-101324464D01*
X163252893Y-101324464D02*
X174602893Y-101324464D01*
X161052893Y-101324464D02*
X156642893Y-96914464D01*
X163252893Y-101324464D02*
X161052893Y-101324464D01*
X182842893Y-112414464D02*
X182842893Y-112304464D01*
X182842893Y-112414464D02*
X182306184Y-111891173D01*
X181862893Y-109524464D02*
X182022893Y-109684464D01*
X181162893Y-108824464D02*
X181862893Y-109524464D01*
X182142893Y-111727882D02*
X182306184Y-111891173D01*
X162102893Y-104304464D02*
X168532893Y-104304464D01*
X168532893Y-104304464D02*
X174672893Y-110674464D01*
X165052893Y-105574464D02*
X165052893Y-107394464D01*
X165052893Y-107394464D02*
X173712893Y-116054464D01*
M02*
