M48
; DRILL file {KiCad 8.0.9-8.0.9-0~ubuntu24.04.1} date 2025-06-07T16:00:36+0200
; FORMAT={-:-/ absolute / metric / decimal}
; #@! TF.CreationDate,2025-06-07T16:00:36+02:00
; #@! TF.GenerationSoftware,Kicad,Pcbnew,8.0.9-8.0.9-0~ubuntu24.04.1
; #@! TF.FileFunction,Plated,1,4,PTH
FMAT,2
METRIC
; #@! TA.AperFunction,Plated,PTH,ViaDrill
T1C0.300
; #@! TA.AperFunction,Plated,PTH,ComponentDrill
T2C0.600
; #@! TA.AperFunction,Plated,PTH,ComponentDrill
T3C0.875
; #@! TA.AperFunction,Plated,PTH,ComponentDrill
T4C0.900
%
G90
G05
T1
X102.437Y-30.423
X102.437Y-64.429
X102.437Y-98.434
X105.637Y-28.903
X105.637Y-62.909
X105.637Y-96.914
X106.407Y-39.183
X106.407Y-41.083
X106.407Y-41.883
X106.407Y-73.189
X106.407Y-75.089
X106.407Y-75.889
X106.407Y-107.194
X106.407Y-109.094
X106.407Y-109.894
X107.107Y-39.813
X107.107Y-73.819
X107.107Y-107.824
X107.167Y-45.683
X107.167Y-47.183
X107.167Y-79.689
X107.167Y-81.189
X107.167Y-113.694
X107.167Y-115.194
X107.177Y-33.943
X107.177Y-67.949
X107.177Y-101.954
X107.232Y-42.683
X107.232Y-44.193
X107.232Y-76.689
X107.232Y-78.199
X107.232Y-110.694
X107.232Y-112.204
X108.937Y-30.203
X108.937Y-64.209
X108.937Y-98.214
X109.207Y-26.363
X109.207Y-60.369
X109.207Y-94.374
X109.597Y-29.663
X109.597Y-63.669
X109.597Y-97.674
X110.397Y-28.373
X110.397Y-62.379
X110.397Y-96.384
X110.727Y-42.683
X110.727Y-44.183
X110.727Y-45.683
X110.727Y-47.183
X110.727Y-76.689
X110.727Y-78.189
X110.727Y-79.689
X110.727Y-81.189
X110.727Y-110.694
X110.727Y-112.194
X110.727Y-113.694
X110.727Y-115.194
X110.867Y-38.683
X110.867Y-72.689
X110.867Y-106.694
X110.877Y-22.623
X110.877Y-56.629
X110.877Y-90.634
X111.097Y-36.293
X111.097Y-70.299
X111.097Y-104.304
X111.587Y-35.373
X111.587Y-69.379
X111.587Y-103.384
X112.357Y-38.703
X112.357Y-72.709
X112.357Y-106.714
X113.157Y-36.893
X113.157Y-70.899
X113.157Y-104.904
X114.047Y-37.563
X114.047Y-71.569
X114.047Y-105.574
X114.997Y-32.693
X114.997Y-35.213
X114.997Y-66.699
X114.997Y-69.219
X114.997Y-100.704
X114.997Y-103.224
X115.277Y-30.833
X115.277Y-64.839
X115.277Y-98.844
X115.617Y-24.463
X115.617Y-58.469
X115.617Y-92.474
X115.657Y-28.373
X115.657Y-62.379
X115.657Y-96.384
X117.717Y-30.193
X117.717Y-64.199
X117.717Y-98.204
X119.557Y-50.343
X119.557Y-84.349
X119.557Y-118.354
X120.807Y-50.183
X120.807Y-84.189
X120.807Y-118.194
X122.707Y-48.043
X122.707Y-82.049
X122.707Y-116.054
X123.097Y-31.123
X123.097Y-65.129
X123.097Y-99.134
X123.407Y-46.473
X123.407Y-80.479
X123.407Y-114.484
X123.667Y-42.663
X123.667Y-76.669
X123.667Y-110.674
X124.197Y-43.873
X124.197Y-77.879
X124.197Y-111.884
X124.933Y-45.463
X124.933Y-79.469
X124.933Y-113.474
X124.977Y-41.303
X124.977Y-75.309
X124.977Y-109.314
X125.117Y-42.313
X125.117Y-76.319
X125.117Y-110.324
X125.747Y-45.483
X125.747Y-79.489
X125.747Y-113.494
X125.767Y-29.143
X125.767Y-63.149
X125.767Y-97.154
X126.437Y-42.313
X126.437Y-45.473
X126.437Y-48.083
X126.437Y-49.983
X126.437Y-76.319
X126.437Y-79.479
X126.437Y-82.089
X126.437Y-83.989
X126.437Y-110.324
X126.437Y-113.484
X126.437Y-116.094
X126.437Y-117.994
X128.017Y-46.653
X128.017Y-80.659
X128.017Y-114.664
X128.077Y-40.853
X128.077Y-74.859
X128.077Y-108.864
X128.507Y-44.393
X128.507Y-78.399
X128.507Y-112.404
X129.017Y-40.853
X129.017Y-74.859
X129.017Y-108.864
X129.177Y-50.143
X129.177Y-84.149
X129.177Y-118.154
X130.487Y-28.883
X130.487Y-62.889
X130.487Y-96.894
X130.537Y-42.243
X130.537Y-47.883
X130.537Y-76.249
X130.537Y-81.889
X130.537Y-110.254
X130.537Y-115.894
X131.827Y-21.823
X131.827Y-55.829
X131.827Y-89.834
X131.837Y-40.803
X131.837Y-43.533
X131.837Y-44.403
X131.837Y-50.143
X131.837Y-74.809
X131.837Y-77.539
X131.837Y-78.409
X131.837Y-84.149
X131.837Y-108.814
X131.837Y-111.544
X131.837Y-112.414
X131.837Y-118.154
X132.887Y-45.573
X132.887Y-79.579
X132.887Y-113.584
X132.897Y-48.923
X132.897Y-82.929
X132.897Y-116.934
X132.927Y-50.143
X132.927Y-84.149
X132.927Y-118.154
X133.025Y-26.843
X133.025Y-60.849
X133.025Y-94.854
X134.337Y-42.363
X134.337Y-45.893
X134.337Y-48.733
X134.337Y-76.369
X134.337Y-79.899
X134.337Y-82.739
X134.337Y-110.374
X134.337Y-113.904
X134.337Y-116.744
X134.627Y-29.703
X134.627Y-63.709
X134.627Y-97.714
X135.097Y-47.433
X135.097Y-81.439
X135.097Y-115.444
X135.297Y-39.133
X135.297Y-40.633
X135.297Y-42.133
X135.297Y-43.633
X135.297Y-73.139
X135.297Y-74.639
X135.297Y-76.139
X135.297Y-77.639
X135.297Y-107.144
X135.297Y-108.644
X135.297Y-110.144
X135.297Y-111.644
X135.337Y-26.873
X135.337Y-60.879
X135.337Y-94.884
X135.347Y-25.983
X135.347Y-59.989
X135.347Y-93.994
X135.685Y-23.563
X135.685Y-57.569
X135.685Y-91.574
X138.527Y-24.933
X138.527Y-58.939
X138.527Y-92.944
X138.597Y-39.133
X138.597Y-40.633
X138.597Y-42.133
X138.597Y-43.633
X138.597Y-73.139
X138.597Y-74.639
X138.597Y-76.139
X138.597Y-77.639
X138.597Y-107.144
X138.597Y-108.644
X138.597Y-110.144
X138.597Y-111.644
X138.867Y-46.623
X138.867Y-80.629
X138.867Y-114.634
X143.887Y-30.573
X143.887Y-64.579
X143.887Y-98.584
X153.443Y-30.423
X153.443Y-64.429
X153.443Y-98.434
X156.643Y-28.903
X156.643Y-62.909
X156.643Y-96.914
X157.413Y-39.183
X157.413Y-41.083
X157.413Y-41.883
X157.413Y-73.189
X157.413Y-75.089
X157.413Y-75.889
X157.413Y-107.194
X157.413Y-109.094
X157.413Y-109.894
X158.113Y-39.813
X158.113Y-73.819
X158.113Y-107.824
X158.173Y-45.683
X158.173Y-47.183
X158.173Y-79.689
X158.173Y-81.189
X158.173Y-113.694
X158.173Y-115.194
X158.183Y-33.943
X158.183Y-67.949
X158.183Y-101.954
X158.238Y-42.683
X158.238Y-44.193
X158.238Y-76.689
X158.238Y-78.199
X158.238Y-110.694
X158.238Y-112.204
X159.943Y-30.203
X159.943Y-64.209
X159.943Y-98.214
X160.213Y-26.363
X160.213Y-60.369
X160.213Y-94.374
X160.603Y-29.663
X160.603Y-63.669
X160.603Y-97.674
X161.403Y-28.373
X161.403Y-62.379
X161.403Y-96.384
X161.733Y-42.683
X161.733Y-44.183
X161.733Y-45.683
X161.733Y-47.183
X161.733Y-76.689
X161.733Y-78.189
X161.733Y-79.689
X161.733Y-81.189
X161.733Y-110.694
X161.733Y-112.194
X161.733Y-113.694
X161.733Y-115.194
X161.873Y-38.683
X161.873Y-72.689
X161.873Y-106.694
X161.883Y-22.623
X161.883Y-56.629
X161.883Y-90.634
X162.103Y-36.293
X162.103Y-70.299
X162.103Y-104.304
X162.593Y-35.373
X162.593Y-69.379
X162.593Y-103.384
X163.363Y-38.703
X163.363Y-72.709
X163.363Y-106.714
X164.163Y-36.893
X164.163Y-70.899
X164.163Y-104.904
X165.053Y-37.563
X165.053Y-71.569
X165.053Y-105.574
X166.003Y-32.693
X166.003Y-35.213
X166.003Y-66.699
X166.003Y-69.219
X166.003Y-100.704
X166.003Y-103.224
X166.283Y-30.833
X166.283Y-64.839
X166.283Y-98.844
X166.623Y-24.463
X166.623Y-58.469
X166.623Y-92.474
X166.663Y-28.373
X166.663Y-62.379
X166.663Y-96.384
X168.723Y-30.193
X168.723Y-64.199
X168.723Y-98.204
X170.563Y-50.343
X170.563Y-84.349
X170.563Y-118.354
X171.813Y-50.183
X171.813Y-84.189
X171.813Y-118.194
X173.713Y-48.043
X173.713Y-82.049
X173.713Y-116.054
X174.103Y-31.123
X174.103Y-65.129
X174.103Y-99.134
X174.413Y-46.473
X174.413Y-80.479
X174.413Y-114.484
X174.673Y-42.663
X174.673Y-76.669
X174.673Y-110.674
X175.203Y-43.873
X175.203Y-77.879
X175.203Y-111.884
X175.939Y-45.463
X175.939Y-79.469
X175.939Y-113.474
X175.983Y-41.303
X175.983Y-75.309
X175.983Y-109.314
X176.123Y-42.313
X176.123Y-76.319
X176.123Y-110.324
X176.753Y-45.483
X176.753Y-79.489
X176.753Y-113.494
X176.773Y-29.143
X176.773Y-63.149
X176.773Y-97.154
X177.443Y-42.313
X177.443Y-45.473
X177.443Y-48.083
X177.443Y-49.983
X177.443Y-76.319
X177.443Y-79.479
X177.443Y-82.089
X177.443Y-83.989
X177.443Y-110.324
X177.443Y-113.484
X177.443Y-116.094
X177.443Y-117.994
X179.023Y-46.653
X179.023Y-80.659
X179.023Y-114.664
X179.083Y-40.853
X179.083Y-74.859
X179.083Y-108.864
X179.513Y-44.393
X179.513Y-78.399
X179.513Y-112.404
X180.023Y-40.853
X180.023Y-74.859
X180.023Y-108.864
X180.183Y-50.143
X180.183Y-84.149
X180.183Y-118.154
X181.493Y-28.883
X181.493Y-62.889
X181.493Y-96.894
X181.543Y-42.243
X181.543Y-47.883
X181.543Y-76.249
X181.543Y-81.889
X181.543Y-110.254
X181.543Y-115.894
X182.833Y-21.823
X182.833Y-55.829
X182.833Y-89.834
X182.843Y-40.803
X182.843Y-43.533
X182.843Y-44.403
X182.843Y-50.143
X182.843Y-74.809
X182.843Y-77.539
X182.843Y-78.409
X182.843Y-84.149
X182.843Y-108.814
X182.843Y-111.544
X182.843Y-112.414
X182.843Y-118.154
X183.893Y-45.573
X183.893Y-79.579
X183.893Y-113.584
X183.903Y-48.923
X183.903Y-82.929
X183.903Y-116.934
X183.933Y-50.143
X183.933Y-84.149
X183.933Y-118.154
X184.03Y-26.843
X184.03Y-60.849
X184.03Y-94.854
X185.343Y-42.363
X185.343Y-45.893
X185.343Y-48.733
X185.343Y-76.369
X185.343Y-79.899
X185.343Y-82.739
X185.343Y-110.374
X185.343Y-113.904
X185.343Y-116.744
X185.633Y-29.703
X185.633Y-63.709
X185.633Y-97.714
X186.103Y-47.433
X186.103Y-81.439
X186.103Y-115.444
X186.303Y-39.133
X186.303Y-40.633
X186.303Y-42.133
X186.303Y-43.633
X186.303Y-73.139
X186.303Y-74.639
X186.303Y-76.139
X186.303Y-77.639
X186.303Y-107.144
X186.303Y-108.644
X186.303Y-110.144
X186.303Y-111.644
X186.343Y-26.873
X186.343Y-60.879
X186.343Y-94.884
X186.353Y-25.983
X186.353Y-59.989
X186.353Y-93.994
X186.69Y-23.563
X186.69Y-57.569
X186.69Y-91.574
X189.533Y-24.933
X189.533Y-58.939
X189.533Y-92.944
X189.603Y-39.133
X189.603Y-40.633
X189.603Y-42.133
X189.603Y-43.633
X189.603Y-73.139
X189.603Y-74.639
X189.603Y-76.139
X189.603Y-77.639
X189.603Y-107.144
X189.603Y-108.644
X189.603Y-110.144
X189.603Y-111.644
X189.873Y-46.623
X189.873Y-80.629
X189.873Y-114.634
X194.893Y-30.573
X194.893Y-64.579
X194.893Y-98.584
T3
X101.167Y-22.763
X101.167Y-25.303
X101.167Y-27.843
X101.167Y-56.769
X101.167Y-59.309
X101.167Y-61.849
X101.167Y-90.774
X101.167Y-93.314
X101.167Y-95.854
X103.707Y-22.763
X103.707Y-25.303
X103.707Y-27.843
X103.707Y-56.769
X103.707Y-59.309
X103.707Y-61.849
X103.707Y-90.774
X103.707Y-93.314
X103.707Y-95.854
X152.173Y-22.763
X152.173Y-25.303
X152.173Y-27.843
X152.173Y-56.769
X152.173Y-59.309
X152.173Y-61.849
X152.173Y-90.774
X152.173Y-93.314
X152.173Y-95.854
X154.713Y-22.763
X154.713Y-25.303
X154.713Y-27.843
X154.713Y-56.769
X154.713Y-59.309
X154.713Y-61.849
X154.713Y-90.774
X154.713Y-93.314
X154.713Y-95.854
T2
X118.947Y-22.393G85X118.947Y-21.593
G05
X118.947Y-26.743G85X118.947Y-25.643
G05
X118.947Y-56.399G85X118.947Y-55.599
G05
X118.947Y-60.749G85X118.947Y-59.649
G05
X118.947Y-90.404G85X118.947Y-89.604
G05
X118.947Y-94.754G85X118.947Y-93.654
G05
X127.587Y-22.393G85X127.587Y-21.593
G05
X127.587Y-26.743G85X127.587Y-25.643
G05
X127.587Y-56.399G85X127.587Y-55.599
G05
X127.587Y-60.749G85X127.587Y-59.649
G05
X127.587Y-90.404G85X127.587Y-89.604
G05
X127.587Y-94.754G85X127.587Y-93.654
G05
X169.953Y-22.393G85X169.953Y-21.593
G05
X169.953Y-26.743G85X169.953Y-25.643
G05
X169.953Y-56.399G85X169.953Y-55.599
G05
X169.953Y-60.749G85X169.953Y-59.649
G05
X169.953Y-90.404G85X169.953Y-89.604
G05
X169.953Y-94.754G85X169.953Y-93.654
G05
X178.593Y-22.393G85X178.593Y-21.593
G05
X178.593Y-26.743G85X178.593Y-25.643
G05
X178.593Y-56.399G85X178.593Y-55.599
G05
X178.593Y-60.749G85X178.593Y-59.649
G05
X178.593Y-90.404G85X178.593Y-89.604
G05
X178.593Y-94.754G85X178.593Y-93.654
G05
T4
X102.807Y-35.933G85X102.007Y-35.933
G05
X102.807Y-50.433G85X102.007Y-50.433
G05
X102.807Y-69.939G85X102.007Y-69.939
G05
X102.807Y-84.439G85X102.007Y-84.439
G05
X102.807Y-103.944G85X102.007Y-103.944
G05
X102.807Y-118.444G85X102.007Y-118.444
G05
X109.267Y-35.933G85X107.467Y-35.933
G05
X109.267Y-50.433G85X107.467Y-50.433
G05
X109.267Y-69.939G85X107.467Y-69.939
G05
X109.267Y-84.439G85X107.467Y-84.439
G05
X109.267Y-103.944G85X107.467Y-103.944
G05
X109.267Y-118.444G85X107.467Y-118.444
G05
X136.807Y-35.933G85X138.607Y-35.933
G05
X136.807Y-50.433G85X138.607Y-50.433
G05
X136.807Y-69.939G85X138.607Y-69.939
G05
X136.807Y-84.439G85X138.607Y-84.439
G05
X136.807Y-103.944G85X138.607Y-103.944
G05
X136.807Y-118.444G85X138.607Y-118.444
G05
X143.267Y-35.933G85X144.067Y-35.933
G05
X143.267Y-50.433G85X144.067Y-50.433
G05
X143.267Y-69.939G85X144.067Y-69.939
G05
X143.267Y-84.439G85X144.067Y-84.439
G05
X143.267Y-103.944G85X144.067Y-103.944
G05
X143.267Y-118.444G85X144.067Y-118.444
G05
X153.813Y-35.933G85X153.013Y-35.933
G05
X153.813Y-50.433G85X153.013Y-50.433
G05
X153.813Y-69.939G85X153.013Y-69.939
G05
X153.813Y-84.439G85X153.013Y-84.439
G05
X153.813Y-103.944G85X153.013Y-103.944
G05
X153.813Y-118.444G85X153.013Y-118.444
G05
X160.273Y-35.933G85X158.473Y-35.933
G05
X160.273Y-50.433G85X158.473Y-50.433
G05
X160.273Y-69.939G85X158.473Y-69.939
G05
X160.273Y-84.439G85X158.473Y-84.439
G05
X160.273Y-103.944G85X158.473Y-103.944
G05
X160.273Y-118.444G85X158.473Y-118.444
G05
X187.813Y-35.933G85X189.613Y-35.933
G05
X187.813Y-50.433G85X189.613Y-50.433
G05
X187.813Y-69.939G85X189.613Y-69.939
G05
X187.813Y-84.439G85X189.613Y-84.439
G05
X187.813Y-103.944G85X189.613Y-103.944
G05
X187.813Y-118.444G85X189.613Y-118.444
G05
X194.273Y-35.933G85X195.073Y-35.933
G05
X194.273Y-50.433G85X195.073Y-50.433
G05
X194.273Y-69.939G85X195.073Y-69.939
G05
X194.273Y-84.439G85X195.073Y-84.439
G05
X194.273Y-103.944G85X195.073Y-103.944
G05
X194.273Y-118.444G85X195.073Y-118.444
G05
M30
